<svg width="390" height="422" version="1.1" xmlns="http://www.w3.org/2000/svg" desc="Created with imagetracer.js version 1.2.6" ><path fill="rgb(36,33,33)" stroke="rgb(36,33,33)" stroke-width="1" opacity="0.996078431372549" d="M 175.5 30 L 195.5 31 L 208.5 36 L 213 39 L 215.5 43 L 219.5 44 L 229.5 39 L 231.5 39 Q 240.2 36.2 253.5 38 L 267.5 43 L 281.5 52 L 292 61.5 L 296 66.5 L 308 81.5 L 322 109.5 L 330 137.5 L 331 146.5 L 336 166.5 L 344 185.5 L 343 185.5 L 340.5 182 L 331.5 180 L 330.5 181 L 328 179.5 Q 328.8 181.8 326.5 181 L 324.5 180 L 321.5 181 Q 319.7 177.8 314.5 178 L 312.5 178 L 307 177 Q 308.3 180 304.5 179 Q 303.3 181.3 302 178.5 L 303 176.5 L 300 174.5 L 302 174 Q 303.1 171.3 300.5 172 L 302 169.5 L 296.5 156 L 295.5 158 L 294.5 151 L 293 151.5 L 291 141.5 L 289 138.5 L 290 136.5 L 288.5 133 L 287 133.5 L 288 130.5 Q 288.8 127.9 285.5 129 L 283.5 129 Q 278.8 128.8 277 125.5 L 278 118.5 L 280 116.5 Q 276.5 116 277 111.5 L 278 110.5 L 273.5 106 L 270 105 Q 271.3 101.7 266.5 103 L 261.5 100 L 253.5 99 L 250.5 97 L 246.5 97 L 235.5 93 L 230.5 93 Q 229.2 95.3 224.5 94 L 217.5 92 L 216 92.5 L 216.5 85 L 218.5 88 L 222 87 Q 223 82.8 220 81.5 L 220 77 L 216 77 L 216 68.5 L 214 68 L 212 73.5 L 212 87 L 201.5 85 L 194.5 88 Q 193 85.5 187.5 87 L 185.5 88 L 183.5 88 L 181.5 87 L 180.5 88 L 167.5 89 L 162.5 91 L 153 91.5 Q 155.5 93 152 94.5 L 153 96.5 L 150.5 97 L 143 99.5 L 144 101.5 L 142.5 104 Q 139.3 102.8 140 99 Q 136.2 98.3 135 101.5 Q 135.5 110.5 130.5 114 L 126.5 114 Q 127.3 117.5 121 116 L 121 118 Q 124.7 116.5 124 119.5 L 117.5 131 Q 114.9 130.2 116 133.5 L 116 135.5 L 114 138.5 L 114.5 140 L 113 139.5 L 114 143 Q 111 141.8 112 145.5 L 111 150.5 L 112 154 Q 115.3 152.7 114 157.5 L 113 158.5 L 114.5 161 L 113 160.5 L 114 163.5 L 110.5 169 L 108.5 168 Q 107 170.5 105.5 167 L 96 168 L 97 158.5 L 100.5 155 Q 104.5 155.5 105 152.5 L 97 148.5 Q 97.6 143.1 96 141 L 92 142.5 L 91 150 Q 85.7 149.3 83 152.5 L 91 157.5 Q 93.7 165.3 86.5 163 Q 83.6 158.4 76.5 158 L 71.5 163 L 70 161.5 Q 72.3 160.2 69.5 159 L 66.5 160 L 64 159 L 60 167 Q 57.3 165.9 58 168.5 L 55 172.5 L 54 179.5 L 51 184.5 L 50 195.5 L 46.5 201 L 46 195.5 L 52 178.5 Q 49.5 177 53 175.5 L 52 173.5 L 54 173 L 56 166.5 L 60 161.5 L 68 145.5 L 74 127 Q 77.3 128.3 76 123.5 L 90 89 Q 92.7 90.1 92 87.5 L 101 74.5 L 120.5 55 L 148.5 37 L 151.5 37 L 163.5 32 L 174.5 31 L 175.5 30 Z M 178 35 L 161 40 L 161 41 L 165 40 L 173 41 Q 152 47 138 59 L 135 61 L 116 82 L 100 113 L 101 119 Q 102 121 107 120 L 108 117 L 111 115 L 114 111 L 117 108 Q 121 109 123 107 Q 125 108 124 106 L 141 91 L 149 86 L 173 77 L 191 77 L 199 79 L 201 75 L 202 62 L 204 55 L 204 49 L 202 45 L 194 41 L 196 40 L 195 37 L 188 35 L 178 35 Z M 242 45 L 236 48 L 233 52 L 235 60 L 235 77 L 236 79 L 240 81 L 264 85 L 277 89 L 293 98 L 294 95 L 294 93 L 290 79 L 290 75 L 287 68 Q 278 56 264 50 L 249 45 L 242 45 Z M 118 69 L 116 72 L 116 73 L 118 72 L 118 69 Z M 114 73 L 104 86 Q 99 88 103 90 L 112 80 Q 111 76 114 77 L 115 75 Q 116 72 114 73 Z M 310 137 Q 306 140 306 146 L 298 149 L 304 151 L 306 154 Q 305 158 307 160 Q 306 164 310 162 L 312 154 L 319 150 L 314 147 L 311 145 Q 312 139 310 137 Z " /><path fill="rgb(36,33,33)" stroke="rgb(36,33,33)" stroke-width="1" opacity="0.996078431372549" d="M 211.5 94 L 215 94.5 L 211.5 95 L 211.5 94 Z " /><path fill="rgb(36,33,33)" stroke="rgb(36,33,33)" stroke-width="1" opacity="0.996078431372549" d="M 206.5 95 L 210 95.5 L 206.5 96 L 206.5 95 Z " /><path fill="rgb(36,33,33)" stroke="rgb(36,33,33)" stroke-width="1" opacity="0.996078431372549" d="M 144 105 L 147 105 Q 145.9 107.7 148.5 107 L 148.5 108 L 144 107 L 144 105 Z " /><path fill="rgb(36,33,33)" stroke="rgb(36,33,33)" stroke-width="1" opacity="0.996078431372549" d="M 59.5 179 L 58 181.5 L 51.5 192 L 52 190.5 L 55 181 Q 58.4 181.8 59.5 179 Z " /><path fill="rgb(36,33,33)" stroke="rgb(36,33,33)" stroke-width="1" opacity="0.996078431372549" d="M 45.5 186 L 45 187.5 L 44.5 189 L 44 187.5 L 45.5 186 Z " /><path fill="rgb(36,33,33)" stroke="rgb(36,33,33)" stroke-width="1" opacity="0.996078431372549" d="M 91.5 196 L 96 199.5 Q 95.3 202.1 98 201 L 98 203.5 L 97 207 Q 94.3 205.9 95 208.5 L 73 245.5 L 73 249.5 L 67.5 269 L 67 258.5 L 68 253 L 66 253 Q 67.1 250.3 64.5 251 L 65 249.5 L 68 235 Q 71 236.3 70 232.5 L 71 229.5 L 78 217.5 L 78 215 Q 81 216.3 80 212.5 L 87.5 201 L 89 201 L 89 197 L 90.5 197 L 91.5 196 Z " /><path fill="rgb(36,33,33)" stroke="rgb(36,33,33)" stroke-width="1" opacity="0.996078431372549" d="M 348.5 197 L 349 198.5 L 347 199.5 L 348.5 197 Z " /><path fill="rgb(36,33,33)" stroke="rgb(36,33,33)" stroke-width="1" opacity="0.996078431372549" d="M 350.5 203 L 354 211.5 L 359 232.5 L 360 247.5 L 361 248.5 L 361 262 Q 357.3 263.4 359 257.5 L 358 256.5 L 357 245.5 L 357 243.5 L 357 235.5 L 354 231.5 L 350 212.5 L 352 210.5 L 350.5 207 L 348 206.5 L 350 206 L 350.5 203 Z " /><path fill="rgb(36,33,33)" stroke="rgb(36,33,33)" stroke-width="1" opacity="0.996078431372549" d="M 316.5 216 L 320 217 L 319.5 223 L 316.5 216 Z " /><path fill="rgb(36,33,33)" stroke="rgb(36,33,33)" stroke-width="1" opacity="0.996078431372549" d="M 38.5 221 L 39.5 223 L 38.5 221 Z " /><path fill="rgb(36,33,33)" stroke="rgb(36,33,33)" stroke-width="1" opacity="0.996078431372549" d="M 325.5 222 L 326 224 Q 329.3 222.7 328 227.5 L 330 233 L 327 231.5 L 325 227.5 L 326 224.5 L 325.5 222 Z " /><path fill="rgb(36,33,33)" stroke="rgb(36,33,33)" stroke-width="1" opacity="0.996078431372549" d="M 94.5 228 L 96 231.5 L 95 231.5 L 94.5 228 Z " /><path fill="rgb(36,33,33)" stroke="rgb(36,33,33)" stroke-width="1" opacity="0.996078431372549" d="M 36.5 230 L 38 233 L 35.5 234 L 36 232.5 L 36.5 230 Z " /><path fill="rgb(36,33,33)" stroke="rgb(36,33,33)" stroke-width="1" opacity="0.996078431372549" d="M 35 235 Q 38.7 233.5 38 236.5 L 35.5 240 L 35 235 Z " /><path fill="rgb(36,33,33)" stroke="rgb(36,33,33)" stroke-width="1" opacity="0.996078431372549" d="M 35.5 241 L 36 254 L 38 254.5 L 35.5 256 L 35.5 241 Z " /><path fill="rgb(36,33,33)" stroke="rgb(36,33,33)" stroke-width="1" opacity="0.996078431372549" d="M 107.5 241 L 107 242.5 L 104.5 247 L 105 245.5 L 107.5 241 Z " /><path fill="rgb(36,33,33)" stroke="rgb(36,33,33)" stroke-width="1" opacity="0.996078431372549" d="M 332.5 241 Q 335.1 240.3 334 243 Q 330.7 241.7 332 246.5 L 334 249.5 L 336 264.5 L 333.5 270 L 332 268.5 L 332 259.5 L 328 242 L 332.5 241 Z " /><path fill="rgb(36,33,33)" stroke="rgb(36,33,33)" stroke-width="1" opacity="0.996078431372549" d="M 97.5 248 L 101 248.5 L 97.5 249 L 97.5 248 Z " /><path fill="rgb(36,33,33)" stroke="rgb(36,33,33)" stroke-width="1" opacity="0.996078431372549" d="M 292.5 257 L 295 262.5 L 293 261.5 L 292.5 259 L 291.5 261 L 291 258.5 L 292.5 257 Z " /><path fill="rgb(36,33,33)" stroke="rgb(36,33,33)" stroke-width="1" opacity="0.996078431372549" d="M 320.5 257 L 323 257.5 L 320.5 258 L 320.5 257 Z " /><path fill="rgb(36,33,33)" stroke="rgb(36,33,33)" stroke-width="1" opacity="0.996078431372549" d="M 310.5 263 L 311 272.5 L 307 283.5 Q 309.3 284.7 306.5 286 L 301.5 288 L 301.5 287 L 304 285.5 Q 303.3 283.3 305.5 284 L 305.5 283 Q 302.9 283.7 304 281 L 302 281 L 302 283 L 300 283 Q 301.1 285.7 298.5 285 L 297 285.5 L 300 281.5 Q 297.5 280 301 278.5 Q 301.7 272.2 306.5 270 Q 309.1 270.7 308 268 L 310 268 L 310.5 263 Z M 302 279 L 300 281 L 302 281 L 302 279 Z " /><path fill="rgb(36,33,33)" stroke="rgb(36,33,33)" stroke-width="1" opacity="0.996078431372549" d="M 358 263 Q 361.7 261.6 360 267.5 L 359 267.5 L 358 263 Z " /><path fill="rgb(36,33,33)" stroke="rgb(36,33,33)" stroke-width="1" opacity="0.996078431372549" d="M 289 264 Q 291.7 262.9 291 265.5 L 292 265.5 L 292.5 264 L 293 265.5 L 289.5 272 L 286 271.5 L 289 264 Z M 291 266 L 290 269 L 291 269 L 291 266 Z " /><path fill="rgb(36,33,33)" stroke="rgb(36,33,33)" stroke-width="1" opacity="0.996078431372549" d="M 295.5 264 Q 298.1 263.2 297 266.5 L 295 267.5 L 296 265.5 L 295.5 264 Z " /><path fill="rgb(36,33,33)" stroke="rgb(36,33,33)" stroke-width="1" opacity="0.996078431372549" d="M 303.5 264 L 301.5 267 L 300 266.5 L 303.5 264 Z " /><path fill="rgb(36,33,33)" stroke="rgb(36,33,33)" stroke-width="1" opacity="0.996078431372549" d="M 357 269 Q 360 268 359 271 Q 356.3 269.9 357 272.5 L 354.5 278 L 354 275.5 L 357 269 Z " /><path fill="rgb(36,33,33)" stroke="rgb(36,33,33)" stroke-width="1" opacity="0.996078431372549" d="M 312 271 L 316 271 L 316 272.5 L 317 274.5 L 316 277.5 L 317 283 Q 313.3 281.5 314 284.5 L 315 288.5 L 314 288.5 L 314 285 Q 311.3 286.1 312 283.5 L 310 283.5 Q 309 278.5 312 277.5 L 312 275.5 L 312 271 Z " /><path fill="rgb(36,33,33)" stroke="rgb(36,33,33)" stroke-width="1" opacity="0.996078431372549" d="M 197.5 274 L 200 274.5 L 197.5 275 L 197.5 274 Z " /><path fill="rgb(36,33,33)" stroke="rgb(36,33,33)" stroke-width="1" opacity="0.996078431372549" d="M 231 285 L 233 285.5 L 230.5 289 L 230 287.5 L 231 285 Z " /><path fill="rgb(36,33,33)" stroke="rgb(36,33,33)" stroke-width="1" opacity="0.996078431372549" d="M 304.5 291 L 305 292.5 L 301.5 299 L 301 296.5 L 304.5 291 Z " /><path fill="rgb(0,0,0)" stroke="rgb(0,0,0)" stroke-width="1" opacity="0" d="M 0 0 L 390 0 L 390 422 L 0 422 L 0 0 Z M 178 29 L 160 33 L 149 37 L 137 43 L 117 58 L 115 61 L 112 63 Q 96 77 86 97 L 66 149 L 41 194 L 35 218 L 35 248 L 34 249 L 35 251 L 36 272 L 41 288 L 59 317 L 60 322 L 60 336 L 57 348 L 53 355 L 48 359 Q 40 358 37 363 L 39 368 Q 47 377 62 380 Q 70 377 67 386 L 70 387 L 68 393 L 76 393 L 77 394 L 90 393 L 95 391 L 110 390 Q 122 388 130 381 L 133 399 Q 137 405 147 407 Q 156 407 161 403 Q 168 397 173 388 L 173 402 L 176 408 L 185 413 Q 189 412 191 414 L 204 411 L 213 404 L 216 410 L 223 415 L 235 419 L 246 419 L 254 415 L 257 411 Q 265 418 278 421 L 293 419 L 300 415 L 306 407 L 315 407 L 323 405 L 335 399 Q 341 390 352 385 L 357 379 L 357 375 L 356 373 L 339 371 Q 333 367 330 359 L 329 354 L 329 334 L 341 341 L 344 341 L 345 342 L 337 325 L 338 317 L 357 283 L 361 268 L 361 244 L 360 243 L 360 236 L 358 226 L 352 204 L 337 167 L 327 124 L 322 111 L 322 108 L 308 81 L 293 62 Q 282 51 269 43 L 260 39 Q 253 40 251 37 L 234 38 L 219 43 L 201 32 L 188 29 L 178 29 Z " /><path fill="rgb(78,62,55)" stroke="rgb(78,62,55)" stroke-width="1" opacity="0.996078431372549" d="M 177.5 35 L 187.5 35 L 195 37 L 196 39.5 L 194 40.5 L 202 45 L 204 48.5 L 204 54.5 L 202 61.5 L 201 74.5 L 198.5 79 L 190.5 77 L 172.5 77 L 148.5 86 L 140.5 91 L 124 105.5 Q 124.8 107.8 122.5 107 Q 121 109.5 115.5 108 L 114 109.5 Q 114.8 111.8 112.5 111 Q 111 114.5 109.5 112 L 108 112.5 L 108.5 114 L 103 112 L 105 102.5 L 116 81 Q 118.7 82.1 118 79.5 Q 124.5 68.5 134.5 61 L 137.5 59 Q 152.2 46.7 173 40.5 L 164.5 40 L 159.5 42 L 160.5 40 L 177.5 35 Z " /><path fill="rgb(78,62,55)" stroke="rgb(78,62,55)" stroke-width="1" opacity="0.996078431372549" d="M 241.5 45 L 248.5 45 L 263.5 50 Q 278.3 55.7 287 67.5 L 290 74.5 L 290 78.5 L 294 92.5 L 294 94.5 L 292.5 98 L 276.5 89 L 263.5 85 L 239.5 81 L 236 78.5 L 235 76.5 L 235 59.5 L 233 51.5 L 235.5 48 L 241.5 45 Z " /><path fill="rgb(78,62,55)" stroke="rgb(78,62,55)" stroke-width="1" opacity="0.996078431372549" d="M 211.5 95 L 215 95.5 L 211.5 96 L 211.5 95 Z " /><path fill="rgb(78,62,55)" stroke="rgb(78,62,55)" stroke-width="1" opacity="0.996078431372549" d="M 204.5 96 L 208 96.5 L 204.5 97 L 204.5 96 Z " /><path fill="rgb(78,62,55)" stroke="rgb(78,62,55)" stroke-width="1" opacity="0.996078431372549" d="M 196.5 97 L 203 97.5 L 196.5 98 L 196.5 97 Z " /><path fill="rgb(78,62,55)" stroke="rgb(78,62,55)" stroke-width="1" opacity="0.996078431372549" d="M 188.5 98 L 194 98.5 L 188.5 99 L 188.5 98 Z " /><path fill="rgb(78,62,55)" stroke="rgb(78,62,55)" stroke-width="1" opacity="0.996078431372549" d="M 137.5 99 Q 141.5 100.5 140 107.5 L 139 107.5 Q 139.8 103.3 137 102.5 L 137.5 99 Z " /><path fill="rgb(78,62,55)" stroke="rgb(78,62,55)" stroke-width="1" opacity="0.996078431372549" d="M 180.5 99 L 185 99.5 L 180.5 100 L 180.5 99 Z " /><path fill="rgb(78,62,55)" stroke="rgb(78,62,55)" stroke-width="1" opacity="0.996078431372549" d="M 176.5 100 L 179 100.5 L 176.5 101 L 176.5 100 Z " /><path fill="rgb(78,62,55)" stroke="rgb(78,62,55)" stroke-width="1" opacity="0.996078431372549" d="M 173.5 101 L 175 101.5 L 170.5 103 L 170.5 102 L 173.5 101 Z " /><path fill="rgb(78,62,55)" stroke="rgb(78,62,55)" stroke-width="1" opacity="0.996078431372549" d="M 166.5 103 L 169 103.5 L 155.5 109 L 149.5 113 L 150.5 111 L 166.5 103 Z " /><path fill="rgb(78,62,55)" stroke="rgb(78,62,55)" stroke-width="1" opacity="0.996078431372549" d="M 136.5 104 L 137 107.5 L 136 107.5 L 136.5 104 Z " /><path fill="rgb(78,62,55)" stroke="rgb(78,62,55)" stroke-width="1" opacity="0.996078431372549" d="M 241.5 105 L 251 110.5 L 249.5 110 L 242.5 107 L 241.5 105 Z " /><path fill="rgb(78,62,55)" stroke="rgb(78,62,55)" stroke-width="1" opacity="0.996078431372549" d="M 140.5 109 Q 140.3 113.3 143 114.5 L 140 112.5 L 140.5 109 Z " /><path fill="rgb(78,62,55)" stroke="rgb(78,62,55)" stroke-width="1" opacity="0.996078431372549" d="M 147.5 113 L 146.5 115 L 147.5 113 Z " /><path fill="rgb(78,62,55)" stroke="rgb(78,62,55)" stroke-width="1" opacity="0.996078431372549" d="M 257.5 113 L 258.5 115 L 257.5 113 Z " /><path fill="rgb(78,62,55)" stroke="rgb(78,62,55)" stroke-width="1" opacity="0.996078431372549" d="M 122 116 L 127 116.5 L 126.5 118 L 129 118.5 L 125.5 119 L 122 118 L 122 116 Z " /><path fill="rgb(78,62,55)" stroke="rgb(78,62,55)" stroke-width="1" opacity="0.996078431372549" d="M 262.5 116 L 263.5 118 L 262.5 116 Z " /><path fill="rgb(78,62,55)" stroke="rgb(78,62,55)" stroke-width="1" opacity="0.996078431372549" d="M 267.5 119 L 268.5 121 L 267.5 119 Z " /><path fill="rgb(78,62,55)" stroke="rgb(78,62,55)" stroke-width="1" opacity="0.996078431372549" d="M 132.5 120 L 134.5 123 L 132.5 120 Z " /><path fill="rgb(78,62,55)" stroke="rgb(78,62,55)" stroke-width="1" opacity="0.996078431372549" d="M 271.5 122 L 276.5 128 L 271.5 122 Z " /><path fill="rgb(78,62,55)" stroke="rgb(78,62,55)" stroke-width="1" opacity="0.996078431372549" d="M 133.5 127 L 131.5 130 L 133.5 127 Z " /><path fill="rgb(78,62,55)" stroke="rgb(78,62,55)" stroke-width="1" opacity="0.996078431372549" d="M 130.5 131 L 129.5 133 L 130.5 131 Z " /><path fill="rgb(78,62,55)" stroke="rgb(78,62,55)" stroke-width="1" opacity="0.996078431372549" d="M 279.5 131 L 280.5 133 L 279.5 131 Z " /><path fill="rgb(78,62,55)" stroke="rgb(78,62,55)" stroke-width="1" opacity="0.996078431372549" d="M 128.5 134 L 127 136.5 L 126 141 Q 123.3 139.9 124 142.5 L 118.5 152 L 119 150.5 Q 122 140.5 128.5 134 Z " /><path fill="rgb(78,62,55)" stroke="rgb(78,62,55)" stroke-width="1" opacity="0.996078431372549" d="M 282.5 135 L 286 139.5 L 284 138.5 L 282.5 135 Z " /><path fill="rgb(78,62,55)" stroke="rgb(78,62,55)" stroke-width="1" opacity="0.996078431372549" d="M 160.5 138 L 175.5 139 L 183 143.5 L 180.5 147 L 177.5 146 L 175.5 146 L 170.5 146 L 160.5 143 L 145.5 143 Q 135.9 145.9 130.5 153 L 130 151.5 Q 134.4 144.9 142.5 142 Q 148.5 142 151.5 139 L 159.5 139 L 160.5 138 Z " /><path fill="rgb(78,62,55)" stroke="rgb(78,62,55)" stroke-width="1" opacity="0.996078431372549" d="M 309.5 138 L 310 139.5 L 308.5 143 L 308 139.5 L 309.5 138 Z " /><path fill="rgb(78,62,55)" stroke="rgb(78,62,55)" stroke-width="1" opacity="0.996078431372549" d="M 286.5 141 L 287.5 143 L 286.5 141 Z " /><path fill="rgb(78,62,55)" stroke="rgb(78,62,55)" stroke-width="1" opacity="0.996078431372549" d="M 93 142 Q 97.9 140.2 96 146.5 L 98.5 151 L 104 152.5 L 97 157.5 L 96 165 Q 91.9 166.7 93 162.5 L 92 157.5 L 89.5 155 L 84 152.5 L 86.5 151 L 87 153 L 92 155 L 94.5 163 L 97 155 L 102 152.5 Q 97.3 152.7 96 149.5 L 94.5 145 L 90.5 152 L 88 151.5 L 92 149.5 L 93 142 Z " /><path fill="rgb(78,62,55)" stroke="rgb(78,62,55)" stroke-width="1" opacity="0.996078431372549" d="M 310.5 142 Q 310.3 146.3 313 147.5 L 311 148 L 310.5 142 Z " /><path fill="rgb(78,62,55)" stroke="rgb(78,62,55)" stroke-width="1" opacity="0.996078431372549" d="M 288.5 144 L 290 146.5 L 288 145.5 L 288.5 144 Z " /><path fill="rgb(78,62,55)" stroke="rgb(78,62,55)" stroke-width="1" opacity="0.996078431372549" d="M 307.5 144 L 308 146.5 L 307 146.5 L 307.5 144 Z " /><path fill="rgb(78,62,55)" stroke="rgb(78,62,55)" stroke-width="1" opacity="0.996078431372549" d="M 238.5 146 L 254.5 146 L 267 149 L 265.5 152 L 253.5 151 L 252.5 152 L 239.5 152 L 236 149.5 Q 234.9 146.2 237.5 147 L 238.5 146 Z " /><path fill="rgb(78,62,55)" stroke="rgb(78,62,55)" stroke-width="1" opacity="0.996078431372549" d="M 302.5 147 L 306 147.5 L 300.5 150 L 299.5 148 L 302.5 147 Z " /><path fill="rgb(78,62,55)" stroke="rgb(78,62,55)" stroke-width="1" opacity="0.996078431372549" d="M 314.5 148 Q 318.3 147.3 319 149.5 L 314.5 151 L 314.5 150 L 317 149.5 Q 313.7 149.6 314.5 148 Z " /><path fill="rgb(78,62,55)" stroke="rgb(78,62,55)" stroke-width="1" opacity="0.996078431372549" d="M 303.5 150 L 307 152.5 L 304.5 151 L 303.5 150 Z " /><path fill="rgb(78,62,55)" stroke="rgb(78,62,55)" stroke-width="1" opacity="0.996078431372549" d="M 312.5 151 L 311 153.5 L 310.5 155 L 310 153.5 L 312.5 151 Z " /><path fill="rgb(78,62,55)" stroke="rgb(78,62,55)" stroke-width="1" opacity="0.996078431372549" d="M 117.5 153 L 118 155.5 L 116.5 159 L 116 156.5 L 117.5 153 Z " /><path fill="rgb(78,62,55)" stroke="rgb(78,62,55)" stroke-width="1" opacity="0.996078431372549" d="M 275.5 153 L 286 164.5 L 284.5 165 L 281.5 161 Q 279.3 161.8 280 159.5 L 275 154.5 L 275.5 153 Z " /><path fill="rgb(78,62,55)" stroke="rgb(78,62,55)" stroke-width="1" opacity="0.996078431372549" d="M 307.5 154 L 308 158.5 L 307 158.5 L 307.5 154 Z " /><path fill="rgb(78,62,55)" stroke="rgb(78,62,55)" stroke-width="1" opacity="0.996078431372549" d="M 293.5 155 L 294 157.5 L 293 157.5 L 293.5 155 Z " /><path fill="rgb(78,62,55)" stroke="rgb(78,62,55)" stroke-width="1" opacity="0.996078431372549" d="M 309.5 159 L 310 160.5 L 308 161.5 L 309.5 159 Z " /><path fill="rgb(78,62,55)" stroke="rgb(78,62,55)" stroke-width="1" opacity="0.996078431372549" d="M 113.5 166 L 114 168.5 L 113 168.5 L 113.5 166 Z " /><path fill="rgb(78,62,55)" stroke="rgb(78,62,55)" stroke-width="1" opacity="0.996078431372549" d="M 112.5 170 L 113 172.5 L 110 181 Q 105.1 180.9 103 184.5 L 102 188.5 L 105 193.5 L 104 196 L 100 194.5 L 98 189 L 92.5 188 L 90 189 L 89.5 187 L 88.5 191 L 85 185.5 L 90.5 179 L 93.5 177 L 95.5 178 L 97.5 178 Q 105.8 178.9 110 177 L 112.5 170 Z " /><path fill="rgb(78,62,55)" stroke="rgb(78,62,55)" stroke-width="1" opacity="0.996078431372549" d="M 298.5 175 L 299 177.5 L 298 177.5 L 298.5 175 Z " /><path fill="rgb(78,62,55)" stroke="rgb(78,62,55)" stroke-width="1" opacity="0.996078431372549" d="M 299.5 180 L 301 188.5 L 302.5 190 L 310.5 189 L 312.5 189 L 317.5 188 L 324.5 193 L 331 195 L 332 198.5 L 331 200.5 L 331 202.5 Q 331.6 207.1 329 208.5 L 331 213 L 336 216.5 L 344 234.5 L 348 250.5 L 348 276.5 L 345.5 284 L 345 280.5 Q 347.3 279.3 346 274.5 L 345 273.5 L 344 255.5 L 339 239 L 334 238.5 L 336 237.5 L 328.5 236 L 325 232.5 L 325.5 231 L 327.5 234 L 336.5 235 L 336 233.5 L 327 212.5 L 323 207 L 315.5 209 L 313.5 208 L 309 212.5 L 309 217.5 L 310 218.5 L 310 235 L 314 235.5 L 311 236.5 L 314 238.5 L 312.5 239 L 309 238 L 306.5 244 L 306 242.5 L 309 237.5 L 309 218.5 L 307 209.5 L 309 205.5 L 310 199.5 L 307.5 196 L 301 194 L 300 191.5 L 299.5 180 Z " /><path fill="rgb(78,62,55)" stroke="rgb(78,62,55)" stroke-width="1" opacity="0.996078431372549" d="M 64.5 183 L 71 185.5 L 73 188.5 L 70 190.5 L 64 202 Q 61.3 200.9 62 203.5 Q 60.7 207.7 56 207 Q 55.5 196.2 61.5 191 L 69 190 L 65.5 184 L 64.5 183 Z " /><path fill="rgb(78,62,55)" stroke="rgb(78,62,55)" stroke-width="1" opacity="0.996078431372549" d="M 331.5 193 L 332.5 195 L 331.5 193 Z " /><path fill="rgb(78,62,55)" stroke="rgb(78,62,55)" stroke-width="1" opacity="0.996078431372549" d="M 100.5 201 L 101 202.5 L 96.5 210 L 97 208.5 L 100.5 201 Z " /><path fill="rgb(78,62,55)" stroke="rgb(78,62,55)" stroke-width="1" opacity="0.996078431372549" d="M 77.5 204 Q 80.8 202.9 80 205.5 L 66.5 227 L 66 223.5 L 68 215.5 L 75.5 205 L 77.5 204 Z " /><path fill="rgb(78,62,55)" stroke="rgb(78,62,55)" stroke-width="1" opacity="0.996078431372549" d="M 95.5 211 L 95 212.5 L 94 220.5 L 96.5 226 L 99.5 225 Q 101.8 225.8 101 229.5 L 99.5 232 L 104 233.5 L 100 236.5 L 94 244.5 L 94 247 L 91 245.5 L 89 239.5 L 91 233 L 96 232 L 92 214 Q 94.7 215.1 94 212.5 L 95.5 211 Z " /><path fill="rgb(78,62,55)" stroke="rgb(78,62,55)" stroke-width="1" opacity="0.996078431372549" d="M 322 219 Q 324.7 217.9 324 220.5 L 325 221.5 L 325 229.5 L 324 229.5 Q 325.5 221.9 322 223 L 321.5 228 L 321 221.5 L 322 219 Z " /><path fill="rgb(78,62,55)" stroke="rgb(78,62,55)" stroke-width="1" opacity="0.996078431372549" d="M 320.5 229 L 321 231.5 L 316.5 235 L 316.5 234 L 320 231.5 L 320.5 229 Z " /><path fill="rgb(78,62,55)" stroke="rgb(78,62,55)" stroke-width="1" opacity="0.996078431372549" d="M 105.5 233 L 110 237.5 L 112 248.5 L 111 248.5 L 109 238.5 L 106.5 235 Q 103.7 235.7 105.5 233 Z " /><path fill="rgb(78,62,55)" stroke="rgb(78,62,55)" stroke-width="1" opacity="0.996078431372549" d="M 315.5 239 L 316.5 241 L 315.5 239 Z " /><path fill="rgb(78,62,55)" stroke="rgb(78,62,55)" stroke-width="1" opacity="0.996078431372549" d="M 330.5 239 L 333 239.5 L 328.5 241 L 328.5 240 L 330.5 239 Z " /><path fill="rgb(78,62,55)" stroke="rgb(78,62,55)" stroke-width="1" opacity="0.996078431372549" d="M 318.5 242 L 320 244.5 L 319 244.5 L 318.5 242 Z " /><path fill="rgb(78,62,55)" stroke="rgb(78,62,55)" stroke-width="1" opacity="0.996078431372549" d="M 324.5 245 L 325 247.5 L 324 247.5 L 324.5 245 Z " /><path fill="rgb(78,62,55)" stroke="rgb(78,62,55)" stroke-width="1" opacity="0.996078431372549" d="M 320.5 248 Q 319.6 253.4 322.5 255 L 323.5 251 L 324 254.5 L 323 257 Q 320 258.3 321 254.5 Q 318.4 252.9 320.5 248 Z " /><path fill="rgb(78,62,55)" stroke="rgb(78,62,55)" stroke-width="1" opacity="0.996078431372549" d="M 295.5 249 L 298 249.5 L 292 252.5 L 286 269.5 L 283.5 273 L 283 271.5 L 288 258.5 L 290 256.5 L 290 253.5 L 293.5 250 L 295.5 249 Z " /><path fill="rgb(78,62,55)" stroke="rgb(78,62,55)" stroke-width="1" opacity="0.996078431372549" d="M 112.5 250 L 113 253.5 L 112 253.5 L 112.5 250 Z " /><path fill="rgb(78,62,55)" stroke="rgb(78,62,55)" stroke-width="1" opacity="0.996078431372549" d="M 113.5 255 L 114 257.5 L 113 257.5 L 113.5 255 Z " /><path fill="rgb(78,62,55)" stroke="rgb(78,62,55)" stroke-width="1" opacity="0.996078431372549" d="M 302.5 264 L 301.5 266 L 302.5 264 Z " /><path fill="rgb(78,62,55)" stroke="rgb(78,62,55)" stroke-width="1" opacity="0.996078431372549" d="M 116.5 265 L 122 276.5 L 134 292.5 L 129 288.5 Q 120.2 278.4 116.5 265 Z " /><path fill="rgb(78,62,55)" stroke="rgb(78,62,55)" stroke-width="1" opacity="0.996078431372549" d="M 158.5 266 L 170.5 266 L 192 270.5 L 183 271.5 L 188 272.5 L 183.5 273 Q 181.2 270.3 175.5 271 L 168.5 267 L 159 267 L 159 271.5 L 162 280.5 L 161 280.5 L 157 267.5 L 158.5 266 Z " /><path fill="rgb(78,62,55)" stroke="rgb(78,62,55)" stroke-width="1" opacity="0.996078431372549" d="M 195.5 271 L 233 271.5 L 229 272 Q 230.1 275.5 222.5 274 L 221.5 275 L 200.5 275 L 200.5 274 L 215 273.5 L 195.5 272 L 195.5 271 Z " /><path fill="rgb(78,62,55)" stroke="rgb(78,62,55)" stroke-width="1" opacity="0.996078431372549" d="M 235.5 272 Q 239.3 271.3 240 273.5 L 236.5 281 L 236 279.5 L 239 274.5 L 235.5 273 L 235.5 272 Z " /><path fill="rgb(78,62,55)" stroke="rgb(78,62,55)" stroke-width="1" opacity="0.996078431372549" d="M 190.5 273 L 197 273.5 L 190.5 274 L 190.5 273 Z " /><path fill="rgb(78,62,55)" stroke="rgb(78,62,55)" stroke-width="1" opacity="0.996078431372549" d="M 280.5 278 L 279.5 280 L 280.5 278 Z " /><path fill="rgb(78,62,55)" stroke="rgb(78,62,55)" stroke-width="1" opacity="0.996078431372549" d="M 278.5 281 L 277 283.5 L 271.5 292 L 257.5 305 L 228.5 325 L 230.5 322 Q 254.9 308.4 273 288.5 L 278.5 281 Z " /><path fill="rgb(78,62,55)" stroke="rgb(78,62,55)" stroke-width="1" opacity="0.996078431372549" d="M 234.5 284 L 234 285.5 L 232.5 288 L 233 286.5 L 234.5 284 Z " /><path fill="rgb(78,62,55)" stroke="rgb(78,62,55)" stroke-width="1" opacity="0.996078431372549" d="M 230 289 L 232 289.5 L 228 292.5 L 230 289 Z " /><path fill="rgb(78,62,55)" stroke="rgb(78,62,55)" stroke-width="1" opacity="0.996078431372549" d="M 176.5 291 L 185.5 291 L 195.5 294 L 214.5 294 L 218 295 L 215 301.5 L 216.5 301 L 219.5 299 L 217.5 302 L 209.5 306 L 200.5 306 L 200.5 305 Q 204.5 305.5 205 302.5 Q 202.9 300.1 197.5 301 L 195.5 302 L 194.5 301 L 186.5 301 L 188 303.5 Q 188.8 306.1 185.5 305 L 182.5 304 L 180 302.5 L 180 301 Q 176.3 302.5 177 299.5 Q 179.5 298 176 296.5 L 175 292.5 L 176.5 291 Z " /><path fill="rgb(78,62,55)" stroke="rgb(78,62,55)" stroke-width="1" opacity="0.996078431372549" d="M 134.5 294 L 138 296 Q 136.9 298.7 139.5 298 L 154.5 314 L 162 319 Q 160.9 321.7 163.5 321 L 166.5 325 Q 148 311.3 134.5 294 Z " /><path fill="rgb(78,62,55)" stroke="rgb(78,62,55)" stroke-width="1" opacity="0.996078431372549" d="M 225.5 295 L 224.5 297 L 225.5 295 Z " /><path fill="rgb(78,62,55)" stroke="rgb(78,62,55)" stroke-width="1" opacity="0.996078431372549" d="M 173.5 296 L 175.5 299 L 173.5 296 Z " /><path fill="rgb(78,62,55)" stroke="rgb(78,62,55)" stroke-width="1" opacity="0.996078431372549" d="M 222.5 297 L 221.5 299 L 222.5 297 Z " /><path fill="rgb(78,62,55)" stroke="rgb(78,62,55)" stroke-width="1" opacity="0.996078431372549" d="M 91.5 310 L 96 312.5 L 101 329.5 L 101 344.5 L 98 361 L 96 361 L 96 366.5 L 94 367 L 94 368.5 L 91.5 372 L 90 366.5 L 92 355.5 L 91 354.5 L 91 337 Q 88 338.3 89 334.5 L 87 329.5 L 87 327.5 L 85 316.5 L 89 315 L 91.5 310 Z " /><path fill="rgb(78,62,55)" stroke="rgb(78,62,55)" stroke-width="1" opacity="0.996078431372549" d="M 303.5 310 L 304 319.5 L 302 323.5 L 302 334.5 L 299 343.5 L 300 348.5 L 299 350.5 L 300 355 Q 297 353.8 298 357.5 L 299 364 L 303 366 L 303 368.5 Q 305.6 369.9 305 374.5 L 304 379 L 302 379 L 302 383 L 300.5 383 L 295.5 381 L 292 377.5 L 292.5 376 Q 289.9 376.8 291 373.5 L 288 364.5 L 288 360.5 L 289 359.5 L 289 348.5 L 292 334.5 L 296 322.5 L 303.5 310 Z " /><path fill="rgb(78,62,55)" stroke="rgb(78,62,55)" stroke-width="1" opacity="0.996078431372549" d="M 170.5 326 L 173 327.5 L 171.5 328 L 170.5 326 Z " /><path fill="rgb(78,62,55)" stroke="rgb(78,62,55)" stroke-width="1" opacity="0.996078431372549" d="M 223.5 326 L 225 326.5 L 217.5 330 L 217.5 329 L 223.5 326 Z " /><path fill="rgb(78,62,55)" stroke="rgb(78,62,55)" stroke-width="1" opacity="0.996078431372549" d="M 174.5 328 L 179 330.5 L 177.5 331 L 174.5 328 Z " /><path fill="rgb(78,62,55)" stroke="rgb(78,62,55)" stroke-width="1" opacity="0.996078431372549" d="M 214.5 330 L 216 330.5 L 205.5 335 L 191.5 336 L 180 331.5 L 181.5 332 L 198.5 335 L 214.5 330 Z " /><path fill="rgb(78,62,55)" stroke="rgb(78,62,55)" stroke-width="1" opacity="0.996078431372549" d="M 68.5 350 L 69 351.5 L 66.5 356 L 66 354.5 L 68.5 350 Z " /><path fill="rgb(78,62,55)" stroke="rgb(78,62,55)" stroke-width="1" opacity="0.996078431372549" d="M 58 351 L 60 351.5 L 54 363.5 L 54 369.5 L 54.5 371 L 46.5 366 L 44.5 367 L 38 362.5 Q 37.2 359.9 40.5 361 Q 42 363.5 47.5 362 L 58 352.5 L 58 351 Z " /><path fill="rgb(78,62,55)" stroke="rgb(78,62,55)" stroke-width="1" opacity="0.996078431372549" d="M 336 374 L 343.5 376 L 349.5 376 L 354.5 375 L 356 377.5 Q 350 386.7 337 388 L 338 382.5 L 336 374 Z M 338 385 Q 337 388 340 387 Q 341 384 338 385 Z " /><path fill="rgb(253,235,209)" stroke="rgb(253,235,209)" stroke-width="1" opacity="1" d="M 214.5 100 L 221.5 101 L 261 123.5 L 261 126.5 L 255 137 L 246.5 141 L 236.5 142 L 227.5 145 L 220.5 149 L 208.5 150 L 199.5 148 L 177.5 137 L 169.5 137 L 160 135 Q 161.1 132.3 158.5 133 L 158 130.5 L 159 127.5 L 158 126.5 L 158 117 L 174.5 111 L 185.5 109 L 189.5 107 L 195.5 107 L 203.5 105 L 214.5 100 Z " /><path fill="rgb(253,235,209)" stroke="rgb(253,235,209)" stroke-width="1" opacity="1" d="M 147.5 150 L 152 152.5 L 164 173 Q 167.3 176 175.5 175 L 176.5 174 L 191.5 173 L 194 174 L 194 177.5 L 187.5 184 Q 185.3 183.3 186 185.5 L 183 187 L 176.5 195 L 158.5 203 L 144.5 204 Q 124.1 199.9 111 188.5 L 112.5 186 L 133.5 181 L 138 179 L 144 158.5 L 144 154.5 L 147.5 150 Z " /><path fill="rgb(253,235,209)" stroke="rgb(253,235,209)" stroke-width="1" opacity="1" d="M 267.5 157 L 271 159.5 L 273 169.5 L 273 179.5 L 276.5 189 Q 284.5 195 296.5 197 L 301 200.5 L 298.5 204 L 279.5 211 L 264.5 213 Q 262.8 210.3 256.5 212 L 243.5 207 L 230 195.5 L 218 179.5 L 218 175 L 224.5 175 L 240.5 179 L 247.5 179 L 265.5 158 L 267.5 157 Z " /><path fill="rgb(253,235,209)" stroke="rgb(253,235,209)" stroke-width="1" opacity="1" d="M 204.5 189 L 209 191.5 L 213 200.5 L 213 211.5 L 214 212.5 L 210.5 218 Q 199.6 219.1 194 216 L 193 209.5 L 196 198.5 L 202.5 190 L 204.5 189 Z " /><path fill="rgb(253,235,209)" stroke="rgb(253,235,209)" stroke-width="1" opacity="1" d="M 160.5 233 L 167 235 L 168 240.5 L 165 242 Q 166.3 245.7 160.5 244 L 157 242 L 156 238.5 L 158.5 234 L 160.5 233 Z " /><path fill="rgb(253,235,209)" stroke="rgb(253,235,209)" stroke-width="1" opacity="1" d="M 199.5 233 Q 205 232 206 235.5 L 204.5 238 Q 198.5 239.5 197 236.5 Q 195.9 233.2 198.5 234 L 199.5 233 Z " /><path fill="rgb(253,235,209)" stroke="rgb(253,235,209)" stroke-width="1" opacity="1" d="M 103.5 241 L 104 243 L 102 242.5 L 103.5 241 Z " /><path fill="rgb(253,235,209)" stroke="rgb(253,235,209)" stroke-width="1" opacity="1" d="M 242.5 241 Q 246.3 240.3 247 242.5 L 245.5 246 L 243.5 247 L 240 246 L 240 242 L 241.5 242 L 242.5 241 Z " /><path fill="rgb(253,235,209)" stroke="rgb(253,235,209)" stroke-width="1" opacity="1" d="M 300 243 Q 303.8 242 305 244.5 L 303 248.5 L 307 251.5 L 304 262 L 302 262 Q 303.1 264.7 300.5 264 L 296 262 L 295 258.5 L 296 255.5 L 295 253.5 L 297.5 250 L 302 248.5 Q 299 247.3 300 243 Z " /><path fill="rgb(253,235,209)" stroke="rgb(253,235,209)" stroke-width="1" opacity="1" d="M 184.5 255 L 193.5 255 L 200.5 257 Q 208.8 256.1 213 258 L 214 261.5 L 213 264 L 196.5 265 L 192.5 263 L 181 262.5 L 181 260.5 Q 180.5 255.5 184.5 255 Z " /><path fill="rgb(188,138,109)" stroke="rgb(188,138,109)" stroke-width="1" opacity="1" d="M 208.5 96 L 218 96.5 L 213.5 97 L 199.5 103 L 183.5 105 L 169.5 109 L 150 117 L 148.5 120 L 140.5 127 L 140 123.5 L 148 117.5 Q 141.5 117 139 112.5 L 137.5 110 L 136 115 L 130 117.5 L 136 122.5 L 137 131.5 L 124 151.5 L 122 157.5 L 121 168.5 L 122 171.5 L 122 178.5 L 119.5 179 L 108.5 182 L 104 185.5 Q 103 192 107.5 193 Q 119 197.5 127 205.5 L 122 208 L 118 214.5 L 118 232.5 L 121 242.5 L 127 251.5 L 127 254.5 L 135 268.5 L 137 275.5 L 151 296.5 L 159.5 306 L 166.5 308 L 168 305.5 L 158 285.5 L 158 279.5 Q 154.8 276 156 269 L 152.5 269 L 149 267 L 148 263.5 L 149 261 L 155.5 260 L 163.5 265 L 173.5 265 L 174.5 264 L 190.5 264 L 196.5 267 L 202.5 267 L 203.5 266 L 214.5 266 L 232.5 270 Q 236.8 265.8 244.5 265 L 250 267 L 251 271.5 Q 248.3 276.6 241 276 L 236 292.5 L 227 310 L 231.5 310 L 242 303 L 242 301 Q 244.7 302.1 244 299.5 L 258 285.5 L 266 272.5 L 271 262.5 L 271 259.5 L 255 235 L 248 229.5 L 247.5 228 L 238.5 228 L 225 232.5 L 229 233.5 L 222 238.5 L 218 249.5 L 214.5 253 Q 208.7 256.7 197.5 255 L 188.5 252 L 184 247.5 L 182 239.5 L 182 233.5 L 178 229.5 L 179 227 Q 171.4 226.3 167.5 221 L 165.5 222 L 160.5 221 L 151 226 Q 152.1 228.7 149.5 228 L 141 236.5 L 141 238 L 139 238 L 137 242 L 133.5 242 L 131.5 242 L 128 241 L 128 234.5 L 129.5 233 L 143.5 227 L 156.5 218 L 163.5 218 L 171.5 222 L 192 225 L 193 230.5 L 190 236.5 L 192.5 240 L 195.5 241 L 211 241 L 212 235.5 L 211 231.5 L 212 228 L 215.5 227 L 216.5 228 L 227.5 228 L 241.5 225 L 248.5 225 L 268.5 241 L 276.5 245 Q 277.8 242.7 279 245.5 L 279.5 248 Q 286.3 243.8 284 230.5 L 280.5 223 Q 277.1 223.9 279 218.5 L 281.5 216 L 308 205 L 309 199.5 L 308 197 L 295.5 193 L 288 189 L 289 183.5 Q 286.7 182.3 288 177.5 Q 290.2 176.3 289 171.5 L 287.5 169 Q 290.5 169.5 289 162.5 L 291 155.5 L 282 137.5 L 269.5 124 L 224 99.5 L 225.5 99 L 256.5 113 L 269.5 121 L 279 130.5 Q 287.8 140.7 293 154.5 L 297 167.5 L 300 191.5 L 301 194 L 309 197.5 L 310 203.5 L 307 207.5 L 308 210.5 L 309 237.5 L 305.5 244 L 300 241 L 299 247.5 Q 301.3 248.8 298.5 250 L 295.5 249 L 290 253.5 L 290 256.5 L 288 258.5 L 281 277.5 Q 272.5 291 260.5 301 L 227.5 325 L 207.5 333 L 194.5 335 L 181.5 332 L 162 321 Q 163.1 318.3 160.5 319 L 145 304.5 L 139.5 298 L 136.5 296 L 122 276.5 L 116 264.5 L 110 241.5 L 110 237.5 L 105.5 233 L 105 234.5 L 107 241.5 L 106 241.5 Q 107.6 235.8 102 238 L 97 246 L 101 247.5 L 99.5 248 L 97.5 248 L 94 247 L 94 244.5 L 101.5 235 L 104 233.5 L 99 231.5 Q 101.7 230.8 101 226.5 L 97.5 225 L 96 225.5 Q 93.1 221.9 94 214.5 L 105 193.5 L 102 186.5 L 105.5 182 L 110 181 L 112 176.5 L 118 152.5 L 124 141 Q 127 142.3 126 138.5 L 134 127.5 L 135 122.5 Q 132.1 118.4 126 117.5 Q 127 115 131.5 116 L 136 112.5 L 137.5 103 L 139 104.5 L 140 112.5 L 142.5 115 L 146.5 115 L 155.5 109 L 175.5 101 L 185.5 99 L 202.5 98 L 208.5 96 Z M 159 266 L 157 268 Q 161 288 176 299 Q 178 298 177 301 L 180 301 L 180 303 L 183 304 L 185 304 L 185 306 L 189 306 L 188 304 L 187 301 L 195 301 L 196 302 L 198 301 Q 203 300 205 303 L 200 306 L 204 307 L 210 306 L 225 297 Q 235 288 240 274 L 239 272 Q 234 273 233 271 L 195 272 L 215 273 L 215 274 L 198 274 L 183 272 L 192 271 L 171 266 L 159 266 Z M 160 281 L 159 284 L 162 290 L 171 301 L 183 310 L 196 313 L 198 313 L 207 312 L 212 310 L 224 302 L 229 296 Q 219 307 202 310 Q 183 311 175 301 L 163 289 L 160 281 Z M 234 290 L 231 294 L 234 292 L 234 290 Z M 190 306 L 190 307 Q 194 306 196 308 L 201 308 Q 198 304 190 306 Z " /><path fill="rgb(188,138,109)" stroke="rgb(188,138,109)" stroke-width="1" opacity="1" d="M 151.5 138 L 160 138.5 L 151.5 139 Q 148.5 142 142.5 142 Q 134.4 144.9 130 151.5 L 130.5 153 Q 135.9 145.9 145.5 143 L 160.5 143 L 170 145.5 L 167.5 146 L 159.5 144 L 146.5 144 L 135.5 149 L 129 154 L 131 148 L 141.5 141 L 151.5 138 Z " /><path fill="rgb(188,138,109)" stroke="rgb(188,138,109)" stroke-width="1" opacity="1" d="M 166.5 138 L 175 138.5 L 166.5 139 L 166.5 138 Z " /><path fill="rgb(188,138,109)" stroke="rgb(188,138,109)" stroke-width="1" opacity="1" d="M 176.5 139 L 183 141 L 184 144.5 L 183 147 L 176.5 148 L 172 146.5 L 175.5 146 L 177.5 146 L 180.5 147 L 183 143.5 Q 181.3 140.3 176.5 140 L 176.5 139 Z " /><path fill="rgb(188,138,109)" stroke="rgb(188,138,109)" stroke-width="1" opacity="1" d="M 309.5 140 L 310 144.5 L 308 145.5 L 309.5 140 Z " /><path fill="rgb(188,138,109)" stroke="rgb(188,138,109)" stroke-width="1" opacity="1" d="M 94.5 145 L 98.5 152 L 102 152.5 L 97 155 L 94.5 163 L 92 155 L 87 152.5 L 90 152 Q 88.9 154.7 91.5 154 L 94.5 158 L 97.5 154 L 99 153.5 L 94.5 150 L 91.5 152 L 93 149.5 L 94.5 145 Z " /><path fill="rgb(188,138,109)" stroke="rgb(188,138,109)" stroke-width="1" opacity="1" d="M 238.5 145 L 254 145.5 L 238.5 146 L 236 147 L 237.5 151 L 239.5 152 L 252.5 152 Q 253.7 149.8 258.5 151 Q 260 153.5 265.5 152 L 267 149 L 262 147.5 L 263.5 147 Q 278.4 150.6 286 161.5 Q 288.8 163.5 288 168 Q 283.3 168.8 282 164.5 L 277.5 159 Q 275.3 159.8 276 157.5 L 271.5 151 Q 266.5 150 265.5 153 L 237.5 153 Q 234.3 152.3 235 147.5 L 238.5 145 Z M 276 153 L 275 155 L 280 160 Q 279 162 282 161 L 285 165 L 286 165 L 276 153 Z " /><path fill="rgb(188,138,109)" stroke="rgb(188,138,109)" stroke-width="1" opacity="1" d="M 255.5 146 L 260 146.5 L 255.5 147 L 255.5 146 Z " /><path fill="rgb(188,138,109)" stroke="rgb(188,138,109)" stroke-width="1" opacity="1" d="M 310.5 146 L 311 148 L 317 149.5 L 313.5 151 L 313.5 149 L 310 147.5 L 310.5 146 Z " /><path fill="rgb(188,138,109)" stroke="rgb(188,138,109)" stroke-width="1" opacity="1" d="M 306.5 147 L 308 147.5 L 305 149.5 L 308 153.5 L 307 153.5 L 304.5 150 L 302 149.5 L 306.5 147 Z " /><path fill="rgb(188,138,109)" stroke="rgb(188,138,109)" stroke-width="1" opacity="1" d="M 311.5 151 L 310.5 153 L 311.5 151 Z " /><path fill="rgb(188,138,109)" stroke="rgb(188,138,109)" stroke-width="1" opacity="1" d="M 308 155 Q 311.3 153.7 310 158.5 L 308 159.5 L 308 155 Z " /><path fill="rgb(188,138,109)" stroke="rgb(188,138,109)" stroke-width="1" opacity="1" d="M 193.5 186 L 193 187.5 L 184.5 205 L 181 199.5 L 182 197 L 185 195.5 L 193.5 186 Z " /><path fill="rgb(188,138,109)" stroke="rgb(188,138,109)" stroke-width="1" opacity="1" d="M 216.5 186 L 228 201.5 Q 226.5 208 221.5 211 L 221 207.5 L 221 205.5 Q 220.2 193 216.5 186 Z " /><path fill="rgb(188,138,109)" stroke="rgb(188,138,109)" stroke-width="1" opacity="1" d="M 322 223 Q 325.5 221.9 324 229.5 L 328.5 236 L 336 237.5 L 328.5 240 L 325 243.5 L 322.5 255 L 321 253.5 L 320 243.5 L 315.5 239 L 311 236.5 L 317.5 235 L 321 231.5 L 322 223 Z M 323 230 L 321 234 L 315 238 L 318 239 L 321 244 L 323 249 L 324 244 L 330 239 Q 331 236 328 237 L 323 230 Z " /><path fill="rgb(188,138,109)" stroke="rgb(188,138,109)" stroke-width="1" opacity="1" d="M 104.5 245 L 103.5 247 L 102 246.5 L 104.5 245 Z " /><path fill="rgb(188,138,109)" stroke="rgb(188,138,109)" stroke-width="1" opacity="1" d="M 304.5 260 L 305 261.5 L 303.5 264 L 303 262.5 L 304.5 260 Z " /><path fill="rgb(226,182,164)" stroke="rgb(226,182,164)" stroke-width="1" opacity="1" d="M 213.5 97 L 221.5 98 L 261.5 119 Q 272.1 124.4 279 133.5 L 287 145.5 L 291 155.5 L 289 162.5 L 289 169 L 287 169.5 Q 290.3 170.8 289 176.5 Q 286.7 177.8 288 182.5 L 288 184.5 L 288 189 Q 290.7 187.9 290 190.5 L 287.5 189 L 279.5 187 L 277 184.5 L 277 176.5 L 276 175.5 L 277 173.5 L 276 172.5 L 276 159 L 282 163.5 L 285.5 168 Q 289.7 169.3 288 164.5 L 277.5 153 Q 263.5 143.5 238.5 145 L 235 147.5 Q 234.3 152.3 237.5 153 L 264 153.5 L 246.5 176 L 238.5 175 L 219.5 169 L 212.5 169 Q 208.8 170.3 210 176.5 L 217 187.5 L 222 206.5 Q 219.8 207.7 221 212.5 L 216 219.5 L 211 230.5 L 211 234.5 L 212 238.5 L 211 241 L 195.5 241 L 191 238.5 L 190 234.5 Q 193.9 232.9 193 226.5 L 185 207.5 L 185 202.5 Q 191.3 187.3 202 176.5 L 202 171.5 L 199.5 169 L 184.5 169 L 177.5 171 L 167.5 171 L 162 163.5 L 158 154.5 L 150 144.5 L 159.5 144 L 180.5 148 L 183 147 L 184 143.5 L 183 141 L 174.5 138 L 151.5 138 L 141.5 141 L 131 148 L 129 154 L 143.5 145 L 143 146.5 L 136 177 L 122 179 L 122 171.5 L 121 170.5 L 121 168.5 L 122 157.5 L 124 151.5 L 137.5 130 Q 138.8 132.3 140 129.5 L 140 127.5 L 147.5 120 L 150 118.5 Q 149.2 115.9 152.5 117 L 169.5 109 L 183.5 105 L 199.5 103 L 213.5 97 Z M 215 100 L 204 105 L 196 107 L 190 107 L 186 109 L 175 111 L 158 117 L 158 127 L 159 128 L 158 131 L 159 133 Q 161 132 160 135 L 170 137 L 178 137 L 200 148 L 209 150 L 221 149 L 228 145 L 237 142 L 247 141 L 255 137 L 261 127 L 261 124 L 222 101 L 215 100 Z M 205 189 L 203 190 L 196 199 L 193 210 L 194 216 Q 200 219 211 218 L 214 213 L 213 212 L 213 201 L 209 192 L 205 189 Z M 200 233 L 199 234 Q 196 233 197 237 Q 198 240 205 238 L 206 236 Q 205 232 200 233 Z " /><path fill="rgb(226,182,164)" stroke="rgb(226,182,164)" stroke-width="1" opacity="1" d="M 219.5 181 L 221.5 184 L 219.5 181 Z " /><path fill="rgb(226,182,164)" stroke="rgb(226,182,164)" stroke-width="1" opacity="1" d="M 125.5 206 Q 129.9 204.5 129 207.5 Q 131.5 209 130 214.5 L 128 223.5 L 128 241 L 132.5 243 L 137 242 L 137 240 L 139 240 Q 137.9 237.3 140.5 238 Q 148.5 228.5 159.5 222 L 178.5 230 L 182 233.5 L 182 239.5 L 184 247.5 L 188.5 252 L 197.5 255 L 209.5 255 Q 215.3 253.8 218 249.5 L 222 238.5 L 224.5 236 L 230.5 233 L 246.5 229 L 252 233.5 L 254 236.5 L 269 255.5 L 271 262.5 L 258 285.5 L 244 299.5 L 244 301 L 242 301 Q 243.1 303.7 240.5 303 Q 236.6 310 227 310 L 236 292.5 L 241 276 Q 248.3 276.6 251 271.5 L 250 267 L 242.5 265 L 230.5 270 L 214.5 266 L 203.5 266 Q 202 268.5 196.5 267 L 190.5 264 L 174.5 264 L 173.5 265 L 163.5 265 L 155.5 260 L 151.5 260 L 149 261 L 148 263.5 L 149 267 L 152.5 269 L 156 269 Q 154.8 276 158 279.5 L 158 285.5 L 168 306.5 Q 167.3 308.8 163.5 308 L 154 300.5 L 137 275.5 L 135 268.5 L 127 254.5 L 127 251.5 L 121 242.5 Q 115.9 232.1 118 214.5 L 122 208 L 125.5 206 Z M 161 233 L 159 234 L 156 239 L 157 242 L 161 244 Q 166 246 165 242 L 168 241 L 167 235 L 161 233 Z M 243 241 L 242 242 L 240 242 L 240 246 L 244 247 L 246 246 L 247 243 Q 246 240 243 241 Z M 185 255 Q 180 256 181 261 L 181 263 L 193 263 L 197 265 L 213 264 L 214 262 L 213 258 Q 209 256 201 257 L 194 255 L 185 255 Z " /><path fill="rgb(226,182,164)" stroke="rgb(226,182,164)" stroke-width="1" opacity="1" d="M 279 223 L 282 224.5 Q 285.4 230.6 284 241.5 L 279.5 248 Q 276.7 243.9 278 235.5 L 279 234.5 L 279 223 Z " /><path fill="rgb(226,182,164)" stroke="rgb(226,182,164)" stroke-width="1" opacity="1" d="M 102 238 Q 108 235.8 106 242.5 L 103.5 246 L 98.5 248 L 98.5 246 Q 96.3 246.8 97 244.5 L 102 238 Z M 104 241 L 102 243 L 104 243 L 104 241 Z " /><path fill="rgb(226,182,164)" stroke="rgb(226,182,164)" stroke-width="1" opacity="1" d="M 300 241 L 306 244.5 Q 306.5 248.5 303.5 249 L 305 246.5 L 303.5 243 Q 298.7 244.3 300 241 Z " /><path fill="rgb(226,182,164)" stroke="rgb(226,182,164)" stroke-width="1" opacity="1" d="M 299.5 245 L 302 248.5 L 299.5 250 L 299 247.5 L 299.5 245 Z " /><path fill="rgb(226,182,164)" stroke="rgb(226,182,164)" stroke-width="1" opacity="1" d="M 306.5 250 L 307.5 252 L 306.5 250 Z " /><path fill="rgb(226,182,164)" stroke="rgb(226,182,164)" stroke-width="1" opacity="1" d="M 306.5 254 L 307 255.5 L 305.5 258 L 305 256.5 L 306.5 254 Z " /><path fill="rgb(226,182,164)" stroke="rgb(226,182,164)" stroke-width="1" opacity="1" d="M 294 255 Q 297 253.8 296 257.5 L 296 259.5 Q 294.9 262.8 297.5 262 L 302 264 L 302.5 262 L 303 263.5 L 299.5 265 L 295 263 L 294 255 Z " /><path fill="rgb(226,182,164)" stroke="rgb(226,182,164)" stroke-width="1" opacity="1" d="M 159.5 281 L 163 288.5 L 174.5 301 Q 183 310.5 201.5 310 Q 220.7 306.2 231 293.5 L 234.5 289 L 234 290.5 L 223.5 302 L 211.5 310 L 206.5 312 L 197.5 313 L 195.5 313 L 182.5 310 L 171 300.5 L 162 289.5 L 159 283.5 L 159.5 281 Z " /><path fill="rgb(226,182,164)" stroke="rgb(226,182,164)" stroke-width="1" opacity="1" d="M 185.5 305 L 191 306.5 L 189.5 307 L 185.5 306 L 185.5 305 Z " /><path fill="rgb(226,182,164)" stroke="rgb(226,182,164)" stroke-width="1" opacity="1" d="M 193.5 306 Q 198.9 305.1 201 307.5 L 195.5 308 L 193.5 306 Z " /><path fill="rgb(226,182,164)" stroke="rgb(226,182,164)" stroke-width="1" opacity="1" d="M 203.5 306 L 206 306.5 L 203.5 307 L 203.5 306 Z " /><path fill="rgb(246,209,116)" stroke="rgb(246,209,116)" stroke-width="1" opacity="1" d="M 137.5 110 L 142.5 116 L 148 117.5 L 140 123.5 Q 141.5 129.5 138.5 131 L 137 129.5 L 136 122.5 L 132.5 119 L 130 117.5 L 136 115 L 137.5 110 Z " /><path fill="rgb(246,209,116)" stroke="rgb(246,209,116)" stroke-width="1" opacity="1" d="M 146.5 144 L 149.5 144 L 154 148.5 L 167.5 171 L 177.5 171 L 184.5 169 L 199.5 169 Q 203.3 170.3 202 176.5 L 195 186 L 193.5 186 L 185 194.5 L 183.5 197 Q 181.3 196.3 182 198.5 L 182 200.5 L 192 225 L 171.5 222 L 163.5 218 L 156.5 218 L 143.5 227 L 128.5 234 L 128 223.5 L 129 222.5 L 130 208.5 L 129 206 L 110.5 195 L 104 189.5 Q 103 184 106.5 183 L 111.5 181 L 136 177 L 142 148.5 L 144.5 145 L 146.5 144 Z M 148 150 L 144 155 L 144 159 L 138 179 L 134 181 L 113 186 L 111 189 Q 124 200 145 204 L 159 203 L 177 195 L 183 187 L 186 186 Q 185 183 188 184 L 194 178 L 194 174 L 192 173 L 177 174 L 176 175 Q 167 176 164 173 L 152 153 L 148 150 Z " /><path fill="rgb(246,209,116)" stroke="rgb(246,209,116)" stroke-width="1" opacity="1" d="M 309.5 145 L 311.5 149 Q 314.1 148.3 313 151 L 310 152.5 Q 311 156.3 308 155 Q 308.7 150.7 305 149.5 L 308 148 L 309.5 145 Z " /><path fill="rgb(246,209,116)" stroke="rgb(246,209,116)" stroke-width="1" opacity="1" d="M 94.5 150 L 98 152 L 94.5 158 L 91.5 154 Q 88.9 154.7 90 152 L 94.5 150 Z " /><path fill="rgb(246,209,116)" stroke="rgb(246,209,116)" stroke-width="1" opacity="1" d="M 267.5 151 Q 273 150 274 153.5 L 276 158.5 L 276 172.5 L 277 174.5 L 277 176.5 Q 275 185 279.5 187 L 287.5 189 L 289.5 191 L 291.5 191 L 308 197 L 309 202.5 L 308 205 L 281.5 216 L 279 218.5 L 278 243.5 L 276.5 245 L 268.5 241 L 250.5 226 L 241.5 225 L 227.5 228 L 216.5 228 L 214.5 227 L 213 227.5 L 216 219.5 L 226 206.5 L 228 201.5 L 214 183.5 L 210 176.5 L 210 171.5 Q 211.8 167.3 219.5 169 L 238.5 175 L 246.5 176 L 264.5 153 L 267.5 151 Z M 268 157 L 266 158 L 248 179 L 241 179 L 225 175 L 218 175 L 219 182 Q 226 187 230 196 L 244 207 L 257 212 Q 263 210 265 213 L 280 211 L 299 204 L 301 201 L 297 197 Q 285 195 277 189 L 273 180 L 273 170 L 271 160 L 268 157 Z " /><path fill="rgb(246,209,116)" stroke="rgb(246,209,116)" stroke-width="1" opacity="1" d="M 160 221 L 166.5 222 L 167.5 221 L 170.5 224 L 179 227 L 177.5 230 L 160 223 L 160 221 Z " /><path fill="rgb(246,209,116)" stroke="rgb(246,209,116)" stroke-width="1" opacity="1" d="M 157.5 222 L 159 222.5 L 155.5 224 L 141.5 237 L 149.5 228 L 152.5 226 L 157.5 222 Z " /><path fill="rgb(246,209,116)" stroke="rgb(246,209,116)" stroke-width="1" opacity="1" d="M 238.5 228 L 247.5 228 L 248 229.5 L 245.5 230 L 241.5 230 L 229.5 234 L 225.5 233 L 224 233.5 L 238.5 228 Z " /><path fill="rgb(246,209,116)" stroke="rgb(246,209,116)" stroke-width="1" opacity="1" d="M 322.5 230 L 327.5 237 Q 331.3 236 330 239 L 324 243.5 L 322.5 249 L 321 243.5 L 317.5 239 L 315 237.5 L 321 233.5 L 322.5 230 Z " /><path fill="rgb(246,209,116)" stroke="rgb(246,209,116)" stroke-width="1" opacity="1" d="M 254.5 235 L 259 240.5 L 254 236.5 L 254.5 235 Z " /><path fill="rgb(246,209,116)" stroke="rgb(246,209,116)" stroke-width="1" opacity="1" d="M 264.5 245 L 265.5 247 L 264.5 245 Z " /><path fill="rgb(246,209,116)" stroke="rgb(246,209,116)" stroke-width="1" opacity="1" d="M 267.5 248 L 268.5 250 L 267.5 248 Z " /><path fill="rgb(27,19,15)" stroke="rgb(27,19,15)" stroke-width="1" opacity="0.9764705882352941" d="M 177.5 29 L 188 29.5 L 177.5 30 L 177.5 29 Z " /><path fill="rgb(27,19,15)" stroke="rgb(27,19,15)" stroke-width="1" opacity="0.9764705882352941" d="M 172.5 30 L 175 30.5 L 172.5 31 L 172.5 30 Z " /><path fill="rgb(27,19,15)" stroke="rgb(27,19,15)" stroke-width="1" opacity="0.9764705882352941" d="M 189.5 30 L 193 30.5 L 189.5 31 L 189.5 30 Z " /><path fill="rgb(27,19,15)" stroke="rgb(27,19,15)" stroke-width="1" opacity="0.9764705882352941" d="M 239.5 37 L 251 37.5 L 239.5 38 L 239.5 37 Z " /><path fill="rgb(27,19,15)" stroke="rgb(27,19,15)" stroke-width="1" opacity="0.9764705882352941" d="M 213.5 40 L 218.5 43 L 224.5 41 L 224.5 42 L 217.5 44 L 213.5 40 Z " /><path fill="rgb(27,19,15)" stroke="rgb(27,19,15)" stroke-width="1" opacity="0.9764705882352941" d="M 261.5 40 L 265 41.5 L 263.5 42 L 261.5 40 Z " /><path fill="rgb(27,19,15)" stroke="rgb(27,19,15)" stroke-width="1" opacity="0.9764705882352941" d="M 136.5 43 L 134.5 46 L 136.5 43 Z " /><path fill="rgb(27,19,15)" stroke="rgb(27,19,15)" stroke-width="1" opacity="0.9764705882352941" d="M 268.5 43 L 269.5 45 L 268.5 43 Z " /><path fill="rgb(27,19,15)" stroke="rgb(27,19,15)" stroke-width="1" opacity="0.9764705882352941" d="M 271.5 45 L 272.5 47 L 271.5 45 Z " /><path fill="rgb(27,19,15)" stroke="rgb(27,19,15)" stroke-width="1" opacity="0.9764705882352941" d="M 132.5 46 L 131.5 48 L 132.5 46 Z " /><path fill="rgb(27,19,15)" stroke="rgb(27,19,15)" stroke-width="1" opacity="0.9764705882352941" d="M 276.5 48 L 277.5 50 L 276.5 48 Z " /><path fill="rgb(27,19,15)" stroke="rgb(27,19,15)" stroke-width="1" opacity="0.9764705882352941" d="M 279.5 50 L 280.5 52 L 279.5 50 Z " /><path fill="rgb(27,19,15)" stroke="rgb(27,19,15)" stroke-width="1" opacity="0.9764705882352941" d="M 122.5 53 L 121.5 55 L 122.5 53 Z " /><path fill="rgb(27,19,15)" stroke="rgb(27,19,15)" stroke-width="1" opacity="0.9764705882352941" d="M 283.5 53 L 286.5 57 L 283.5 53 Z " /><path fill="rgb(27,19,15)" stroke="rgb(27,19,15)" stroke-width="1" opacity="0.9764705882352941" d="M 118.5 56 L 117.5 58 L 118.5 56 Z " /><path fill="rgb(27,19,15)" stroke="rgb(27,19,15)" stroke-width="1" opacity="0.9764705882352941" d="M 288.5 57 L 293 62.5 L 292 62.5 L 288.5 57 Z " /><path fill="rgb(27,19,15)" stroke="rgb(27,19,15)" stroke-width="1" opacity="0.9764705882352941" d="M 111.5 63 L 105.5 70 L 111.5 63 Z " /><path fill="rgb(27,19,15)" stroke="rgb(27,19,15)" stroke-width="1" opacity="0.9764705882352941" d="M 296.5 66 L 298.5 69 L 296.5 66 Z " /><path fill="rgb(27,19,15)" stroke="rgb(27,19,15)" stroke-width="1" opacity="0.9764705882352941" d="M 214 68 L 216 68 L 216 76.5 L 220 77 L 220 81.5 Q 223 82.8 222 87 L 218.5 88 L 216.5 85 L 216 92.5 L 217.5 92 L 224.5 94 L 229.5 94 Q 230.7 91.7 235.5 93 L 270 103 Q 268.9 105.7 271.5 105 L 278 110.5 L 277 113.5 Q 282.5 116 278 118.5 Q 279.3 123.8 276.5 125 L 266 119 Q 267.3 116 263.5 117 L 234.5 101 Q 233 103.5 231.5 100 L 227.5 100 L 217.5 95 L 211.5 94 L 203.5 97 L 187.5 98 L 175.5 101 L 173.5 100 L 162.5 104 L 143 114 Q 140.4 110.8 141 103.5 L 143 103.5 L 144 100.5 L 143.5 99 Q 149.3 98.8 152 95.5 L 154 92.5 L 153.5 91 L 162.5 91 L 167.5 89 L 173.5 89 L 181.5 87 L 183.5 88 L 185.5 88 L 193.5 87 L 195.5 87 L 204.5 85 L 212 87 L 212 73.5 L 214 68 Z M 144 105 Q 143 108 147 107 Q 148 104 144 105 Z " /><path fill="rgb(27,19,15)" stroke="rgb(27,19,15)" stroke-width="1" opacity="0.9764705882352941" d="M 299.5 70 L 303.5 75 L 299.5 70 Z " /><path fill="rgb(27,19,15)" stroke="rgb(27,19,15)" stroke-width="1" opacity="0.9764705882352941" d="M 304.5 76 L 305.5 78 L 304.5 76 Z " /><path fill="rgb(27,19,15)" stroke="rgb(27,19,15)" stroke-width="1" opacity="0.9764705882352941" d="M 99.5 77 L 97.5 80 L 99.5 77 Z " /><path fill="rgb(27,19,15)" stroke="rgb(27,19,15)" stroke-width="1" opacity="0.9764705882352941" d="M 306.5 79 L 307.5 81 L 306.5 79 Z " /><path fill="rgb(27,19,15)" stroke="rgb(27,19,15)" stroke-width="1" opacity="0.9764705882352941" d="M 96.5 81 L 95 83.5 L 92.5 87 L 94 84.5 L 96.5 81 Z " /><path fill="rgb(27,19,15)" stroke="rgb(27,19,15)" stroke-width="1" opacity="0.9764705882352941" d="M 309.5 84 L 310.5 86 L 309.5 84 Z " /><path fill="rgb(27,19,15)" stroke="rgb(27,19,15)" stroke-width="1" opacity="0.9764705882352941" d="M 314.5 93 L 322 108.5 L 321 108.5 L 314 94.5 L 314.5 93 Z " /><path fill="rgb(27,19,15)" stroke="rgb(27,19,15)" stroke-width="1" opacity="0.9764705882352941" d="M 87.5 95 L 87 96.5 L 83.5 104 L 83 102.5 L 87.5 95 Z " /><path fill="rgb(27,19,15)" stroke="rgb(27,19,15)" stroke-width="1" opacity="0.9764705882352941" d="M 135.5 101 L 136 103.5 L 135 103.5 L 135.5 101 Z " /><path fill="rgb(27,19,15)" stroke="rgb(27,19,15)" stroke-width="1" opacity="0.9764705882352941" d="M 134.5 107 L 135 110.5 L 132.5 114 L 126.5 115 L 126.5 114 Q 132 115 133 111.5 L 134.5 107 Z " /><path fill="rgb(27,19,15)" stroke="rgb(27,19,15)" stroke-width="1" opacity="0.9764705882352941" d="M 81.5 108 L 82 109.5 L 80.5 112 L 80 110.5 L 81.5 108 Z " /><path fill="rgb(27,19,15)" stroke="rgb(27,19,15)" stroke-width="1" opacity="0.9764705882352941" d="M 79.5 113 L 80 114.5 L 76 123.5 L 76 127 L 74 126.5 L 79.5 113 Z " /><path fill="rgb(27,19,15)" stroke="rgb(27,19,15)" stroke-width="1" opacity="0.9764705882352941" d="M 124.5 119 L 127.5 119 L 133 122 L 134 125.5 L 121 143.5 L 121.5 145 Q 119.3 144.3 120 146.5 L 113.5 163 L 113 160.5 L 114 157.5 L 114 154 Q 111 155.3 112 151.5 L 111 146.5 L 112 143 Q 114.7 144.1 114 141.5 L 113 139.5 L 114 137 Q 116.7 138.1 116 135.5 L 116 133.5 Q 114.9 130.2 117.5 131 L 124.5 119 Z " /><path fill="rgb(27,19,15)" stroke="rgb(27,19,15)" stroke-width="1" opacity="0.9764705882352941" d="M 330.5 139 L 331 141.5 L 330 141.5 L 330.5 139 Z " /><path fill="rgb(27,19,15)" stroke="rgb(27,19,15)" stroke-width="1" opacity="0.9764705882352941" d="M 67.5 144 L 68 145.5 L 66.5 148 L 66 146.5 L 67.5 144 Z " /><path fill="rgb(27,19,15)" stroke="rgb(27,19,15)" stroke-width="1" opacity="0.9764705882352941" d="M 331.5 144 L 332 146.5 L 331 146.5 L 331.5 144 Z " /><path fill="rgb(27,19,15)" stroke="rgb(27,19,15)" stroke-width="1" opacity="0.9764705882352941" d="M 332.5 149 L 338 168.5 L 337 168.5 L 332.5 149 Z " /><path fill="rgb(27,19,15)" stroke="rgb(27,19,15)" stroke-width="1" opacity="0.9764705882352941" d="M 294.5 151 L 295 153.5 L 294 153.5 L 294.5 151 Z " /><path fill="rgb(27,19,15)" stroke="rgb(27,19,15)" stroke-width="1" opacity="0.9764705882352941" d="M 296.5 156 L 302 169.5 L 300.5 172 Q 303.1 171.3 302 174 Q 297.5 175.8 299 170.5 L 297 165.5 L 296.5 156 Z " /><path fill="rgb(27,19,15)" stroke="rgb(27,19,15)" stroke-width="1" opacity="0.9764705882352941" d="M 61.5 157 L 61 158.5 L 60.5 160 L 60 158.5 L 61.5 157 Z " /><path fill="rgb(27,19,15)" stroke="rgb(27,19,15)" stroke-width="1" opacity="0.9764705882352941" d="M 59.5 161 L 58.5 163 L 59.5 161 Z " /><path fill="rgb(27,19,15)" stroke="rgb(27,19,15)" stroke-width="1" opacity="0.9764705882352941" d="M 57.5 164 L 56.5 166 L 57.5 164 Z " /><path fill="rgb(27,19,15)" stroke="rgb(27,19,15)" stroke-width="1" opacity="0.9764705882352941" d="M 51.5 175 L 50.5 177 L 51.5 175 Z " /><path fill="rgb(27,19,15)" stroke="rgb(27,19,15)" stroke-width="1" opacity="0.9764705882352941" d="M 47.5 182 L 46.5 184 L 47.5 182 Z " /><path fill="rgb(27,19,15)" stroke="rgb(27,19,15)" stroke-width="1" opacity="0.9764705882352941" d="M 350.5 201 L 352 204.5 L 351 204.5 L 350.5 201 Z " /><path fill="rgb(27,19,15)" stroke="rgb(27,19,15)" stroke-width="1" opacity="0.9764705882352941" d="M 95.5 207 L 96 208.5 L 74 248.5 L 70.5 263 L 70 260.5 L 73 245.5 L 95.5 207 Z " /><path fill="rgb(27,19,15)" stroke="rgb(27,19,15)" stroke-width="1" opacity="0.9764705882352941" d="M 316.5 217 L 320 224.5 L 317 229.5 L 318 230.5 L 314.5 234 Q 310.1 235.5 311 232.5 L 310 228.5 L 311 226.5 L 310 224.5 L 311 221.5 L 311 219 Q 316.7 221 316.5 217 Z " /><path fill="rgb(27,19,15)" stroke="rgb(27,19,15)" stroke-width="1" opacity="0.9764705882352941" d="M 35.5 219 L 36 221.5 L 35 221.5 L 35.5 219 Z " /><path fill="rgb(27,19,15)" stroke="rgb(27,19,15)" stroke-width="1" opacity="0.9764705882352941" d="M 359.5 235 L 360 238.5 L 359 238.5 L 359.5 235 Z " /><path fill="rgb(27,19,15)" stroke="rgb(27,19,15)" stroke-width="1" opacity="0.9764705882352941" d="M 309.5 239 L 314.5 240 L 317 242.5 L 319 246.5 Q 318.2 254.2 320 258 Q 323.8 258.8 325 255.5 L 325.5 250 L 328 258.5 L 328 269 L 326 269 Q 327.2 274.3 324 273.5 L 324 276.5 L 323 277.5 L 323 287.5 L 321.5 295 L 321 283 Q 317.3 284.5 318 281.5 L 316 275.5 L 317 273.5 L 316 271 L 312 271 L 312 272.5 L 311 272.5 L 310.5 263 L 310 268 L 308 268 Q 309.1 270.7 306.5 270 L 302 274.5 L 298 283 Q 294.7 284.1 296 280 L 299 278.5 L 297 278 L 299 274.5 L 295 274 L 293 278.5 L 295 283 Q 292.3 281.9 293 284.5 L 291.5 284 L 288 285.5 L 282.5 293 L 274.5 293 L 274 295 L 271.5 295 L 271.5 294 Q 273.8 294.8 273 292.5 L 279 284.5 L 279 281.5 L 285 272 Q 289.6 273.3 291 270.5 L 292 266.5 L 290 263.5 L 292.5 259 L 296 265.5 L 295 267.5 L 297 266.5 L 297.5 265 L 301.5 267 L 305 262.5 L 308 250 Q 304 251.4 306 244.5 L 309.5 239 Z " /><path fill="rgb(27,19,15)" stroke="rgb(27,19,15)" stroke-width="1" opacity="0.9764705882352941" d="M 108.5 240 L 112 253.5 L 111 257.5 Q 113.3 258.8 110.5 260 L 107 252.5 L 107 248.5 L 108 246.5 L 106 246.5 L 108.5 240 Z " /><path fill="rgb(27,19,15)" stroke="rgb(27,19,15)" stroke-width="1" opacity="0.9764705882352941" d="M 327.5 243 L 330 248.5 L 330 253.5 L 332 259.5 L 332 268.5 L 330.5 275 L 329 250.5 Q 325.8 248.3 327.5 243 Z " /><path fill="rgb(27,19,15)" stroke="rgb(27,19,15)" stroke-width="1" opacity="0.9764705882352941" d="M 360.5 243 L 361 247.5 L 360 247.5 L 360.5 243 Z " /><path fill="rgb(27,19,15)" stroke="rgb(27,19,15)" stroke-width="1" opacity="0.9764705882352941" d="M 91.5 246 L 97 248.5 L 95.5 249 Q 91.5 248.5 91.5 246 Z " /><path fill="rgb(27,19,15)" stroke="rgb(27,19,15)" stroke-width="1" opacity="0.9764705882352941" d="M 102.5 247 L 104 247.5 L 101.5 249 L 102.5 247 Z " /><path fill="rgb(27,19,15)" stroke="rgb(27,19,15)" stroke-width="1" opacity="0.9764705882352941" d="M 35.5 262 L 36 264.5 L 35 264.5 L 35.5 262 Z " /><path fill="rgb(27,19,15)" stroke="rgb(27,19,15)" stroke-width="1" opacity="0.9764705882352941" d="M 360.5 262 L 361 264.5 L 360 264.5 L 360.5 262 Z " /><path fill="rgb(27,19,15)" stroke="rgb(27,19,15)" stroke-width="1" opacity="0.9764705882352941" d="M 359.5 268 L 360 271.5 L 356 284.5 L 351.5 291 L 352 289.5 Q 357.6 280.6 359.5 268 Z " /><path fill="rgb(27,19,15)" stroke="rgb(27,19,15)" stroke-width="1" opacity="0.9764705882352941" d="M 329.5 277 L 330 280.5 L 329 280.5 L 329.5 277 Z " /><path fill="rgb(27,19,15)" stroke="rgb(27,19,15)" stroke-width="1" opacity="0.9764705882352941" d="M 38.5 278 L 40 280.5 L 39 280.5 L 38.5 278 Z " /><path fill="rgb(27,19,15)" stroke="rgb(27,19,15)" stroke-width="1" opacity="0.9764705882352941" d="M 40.5 282 L 43 287.5 L 41 286.5 L 40.5 282 Z " /><path fill="rgb(27,19,15)" stroke="rgb(27,19,15)" stroke-width="1" opacity="0.9764705882352941" d="M 171.5 284 L 183 286.5 L 179.5 287 L 172.5 285 L 169.5 286 L 169.5 285 L 171.5 284 Z " /><path fill="rgb(27,19,15)" stroke="rgb(27,19,15)" stroke-width="1" opacity="0.9764705882352941" d="M 293.5 286 L 296 290.5 L 296 293 L 292 293 L 292 295 L 290 295 L 290 297 L 286 299 L 286 303 Q 283.3 301.9 284 304.5 L 281.5 308 L 282 306.5 L 293.5 286 Z " /><path fill="rgb(27,19,15)" stroke="rgb(27,19,15)" stroke-width="1" opacity="0.9764705882352941" d="M 187.5 288 L 190 288.5 L 187.5 289 L 187.5 288 Z " /><path fill="rgb(27,19,15)" stroke="rgb(27,19,15)" stroke-width="1" opacity="0.9764705882352941" d="M 195.5 290 L 198 290.5 L 195.5 291 L 195.5 290 Z " /><path fill="rgb(27,19,15)" stroke="rgb(27,19,15)" stroke-width="1" opacity="0.9764705882352941" d="M 202.5 290 L 207 290.5 L 202.5 291 L 202.5 290 Z " /><path fill="rgb(27,19,15)" stroke="rgb(27,19,15)" stroke-width="1" opacity="0.9764705882352941" d="M 219.5 290 Q 222.8 288.9 222 291.5 L 220.5 291 L 219.5 290 Z " /><path fill="rgb(62,40,24)" stroke="rgb(62,40,24)" stroke-width="1" opacity="0.996078431372549" d="M 117.5 69 L 118 71.5 L 115 73 L 114 77 Q 111 75.8 112 79.5 L 102.5 90 Q 98.7 87.7 104 85.5 L 113.5 73 L 116 71.5 L 117.5 69 Z " /><path fill="rgb(62,40,24)" stroke="rgb(62,40,24)" stroke-width="1" opacity="0.996078431372549" d="M 110.5 91 L 111 92.5 L 106.5 101 L 106 99.5 L 110.5 91 Z " /><path fill="rgb(62,40,24)" stroke="rgb(62,40,24)" stroke-width="1" opacity="0.996078431372549" d="M 138.5 99 Q 140.8 98.3 140 100.5 L 138.5 99 Z " /><path fill="rgb(62,40,24)" stroke="rgb(62,40,24)" stroke-width="1" opacity="0.996078431372549" d="M 136.5 100 L 137 103.5 L 136 103.5 L 136.5 100 Z " /><path fill="rgb(62,40,24)" stroke="rgb(62,40,24)" stroke-width="1" opacity="0.996078431372549" d="M 104.5 103 L 105 104.5 Q 102 106.8 103 112 L 107.5 113 L 109.5 112 Q 111 114.5 112.5 111 L 114 111.5 L 108 116.5 L 106.5 120 Q 102 121 101 118.5 L 100 112.5 L 104.5 103 Z " /><path fill="rgb(62,40,24)" stroke="rgb(62,40,24)" stroke-width="1" opacity="0.996078431372549" d="M 115.5 108 L 114.5 110 L 115.5 108 Z " /><path fill="rgb(62,40,24)" stroke="rgb(62,40,24)" stroke-width="1" opacity="0.996078431372549" d="M 152.5 109 L 151.5 111 L 152.5 109 Z " /><path fill="rgb(62,40,24)" stroke="rgb(62,40,24)" stroke-width="1" opacity="0.996078431372549" d="M 250.5 109 L 251.5 111 L 250.5 109 Z " /><path fill="rgb(62,40,24)" stroke="rgb(62,40,24)" stroke-width="1" opacity="0.996078431372549" d="M 141.5 110 L 144 114.5 L 141 112.5 L 141.5 110 Z " /><path fill="rgb(62,40,24)" stroke="rgb(62,40,24)" stroke-width="1" opacity="0.996078431372549" d="M 149.5 111 L 148.5 113 L 149.5 111 Z " /><path fill="rgb(62,40,24)" stroke="rgb(62,40,24)" stroke-width="1" opacity="0.996078431372549" d="M 269.5 120 L 270.5 122 L 269.5 120 Z " /><path fill="rgb(62,40,24)" stroke="rgb(62,40,24)" stroke-width="1" opacity="0.996078431372549" d="M 273.5 123 L 276.5 127 L 273.5 123 Z " /><path fill="rgb(62,40,24)" stroke="rgb(62,40,24)" stroke-width="1" opacity="0.996078431372549" d="M 133.5 126 L 132.5 128 L 133.5 126 Z " /><path fill="rgb(62,40,24)" stroke="rgb(62,40,24)" stroke-width="1" opacity="0.996078431372549" d="M 277.5 128 L 281 129.5 L 281.5 132 L 283.5 131 L 285.5 132 L 284.5 130 L 282 129.5 L 288 129 L 287 131.5 L 290 132.5 L 286 134.5 L 288 135 L 287 140.5 L 287.5 142 L 277.5 128 Z " /><path fill="rgb(62,40,24)" stroke="rgb(62,40,24)" stroke-width="1" opacity="0.996078431372549" d="M 129.5 131 L 129 132.5 L 128.5 134 L 128 132.5 L 129.5 131 Z " /><path fill="rgb(62,40,24)" stroke="rgb(62,40,24)" stroke-width="1" opacity="0.996078431372549" d="M 309.5 137 L 308.5 139 L 309.5 137 Z " /><path fill="rgb(62,40,24)" stroke="rgb(62,40,24)" stroke-width="1" opacity="0.996078431372549" d="M 310.5 139 L 311 141.5 L 310 141.5 L 310.5 139 Z " /><path fill="rgb(62,40,24)" stroke="rgb(62,40,24)" stroke-width="1" opacity="0.996078431372549" d="M 307.5 140 L 308 143.5 L 307 147 L 305 146.5 L 307.5 140 Z " /><path fill="rgb(62,40,24)" stroke="rgb(62,40,24)" stroke-width="1" opacity="0.996078431372549" d="M 93.5 141 L 96 141.5 L 93 142 L 92.5 145 L 92 142.5 L 93.5 141 Z " /><path fill="rgb(62,40,24)" stroke="rgb(62,40,24)" stroke-width="1" opacity="0.996078431372549" d="M 96.5 143 L 97 146.5 L 96 146.5 L 96.5 143 Z " /><path fill="rgb(62,40,24)" stroke="rgb(62,40,24)" stroke-width="1" opacity="0.996078431372549" d="M 299.5 147 L 302 147.5 L 299 148.5 L 299.5 150 Q 296.5 148.5 299.5 147 Z " /><path fill="rgb(62,40,24)" stroke="rgb(62,40,24)" stroke-width="1" opacity="0.996078431372549" d="M 313.5 147 L 316 147.5 L 313.5 148 L 313.5 147 Z " /><path fill="rgb(62,40,24)" stroke="rgb(62,40,24)" stroke-width="1" opacity="0.996078431372549" d="M 91.5 149 L 90.5 151 L 87.5 152 L 87 150 L 91.5 149 Z " /><path fill="rgb(62,40,24)" stroke="rgb(62,40,24)" stroke-width="1" opacity="0.996078431372549" d="M 97.5 149 L 101 150.5 L 98.5 151 L 97.5 149 Z " /><path fill="rgb(62,40,24)" stroke="rgb(62,40,24)" stroke-width="1" opacity="0.996078431372549" d="M 84.5 151 L 86 151.5 L 84 152.5 L 88 154.5 L 86.5 154 L 83 152.5 L 84.5 151 Z " /><path fill="rgb(62,40,24)" stroke="rgb(62,40,24)" stroke-width="1" opacity="0.996078431372549" d="M 102.5 151 L 105 152.5 L 101.5 155 L 101.5 154 L 104 152.5 L 102.5 151 Z " /><path fill="rgb(62,40,24)" stroke="rgb(62,40,24)" stroke-width="1" opacity="0.996078431372549" d="M 304.5 151 L 307 153.5 L 308 161.5 L 307 161.5 L 306 153.5 L 304.5 151 Z " /><path fill="rgb(62,40,24)" stroke="rgb(62,40,24)" stroke-width="1" opacity="0.996078431372549" d="M 313.5 151 L 312 153.5 L 310.5 158 L 310 155.5 L 313.5 151 Z " /><path fill="rgb(62,40,24)" stroke="rgb(62,40,24)" stroke-width="1" opacity="0.996078431372549" d="M 89.5 155 L 92 157.5 L 93 165 Q 97.5 166.8 96 161.5 L 97 161.5 L 96 168 L 105.5 167 Q 107 170.5 108.5 168 L 111.5 170 L 113.5 165 L 113 166.5 L 110 177 Q 105.9 178.9 97.5 178 L 95.5 178 L 92 177 Q 93.1 179.7 90.5 179 L 86 184.5 L 88 185.5 L 86.5 186 L 85 185.5 L 88.5 191 L 89.5 187 L 90 189 L 92 188.5 L 91.5 187 Q 93.5 189.8 98 189 L 101.5 196 L 103 196.5 L 99.5 203 L 96 201 L 92.5 196 L 89 197 L 89 201 L 87.5 201 Q 81.5 206.4 80 215 Q 77 213.8 78 217.5 L 70 230.5 L 70 232.5 Q 71 236.3 68 235 L 68 238.5 L 64 250.5 L 66 251 Q 65 254 68 253 L 68 257.5 L 67 258.5 L 67 270.5 L 68 271.5 L 69 284.5 L 68 288.5 L 70 298.5 L 72 300.5 L 73 311.5 L 77 324.5 L 77 339.5 L 73 352.5 L 66.5 361 L 65 361.5 L 68.5 362 Q 69.6 359.3 73 360 L 73 363.5 L 69 374 L 61.5 376 L 54.5 376 L 44.5 372 L 41 368.5 L 38 363.5 L 40.5 365 L 45.5 367 L 47.5 366 L 53.5 370 L 54 363.5 L 60 351.5 L 58 351 L 58 352.5 L 49.5 361 L 41.5 362 L 40.5 360 L 48.5 359 L 52 357 L 60 340.5 L 61.5 322 L 66 328.5 L 67.5 347 L 68 331.5 L 65 321.5 L 44 283.5 L 38 254 L 36 253.5 L 36 238.5 L 38 235 L 35 234.5 L 35 232.5 L 36 214.5 L 39 201.5 L 52.5 174 L 53 175.5 L 51 179.5 L 48 188.5 L 48 192.5 L 46 195.5 L 46 200.5 L 48 199.5 L 50 195.5 L 51 184.5 L 53 182.5 L 55 172.5 L 58 167 Q 60.7 168.1 60 165.5 L 64 159 L 67.5 160 L 69.5 159 L 71.5 163 L 77.5 158 L 83.5 160 L 86.5 163 L 91 163 Q 91.9 156.7 89.5 155 Z M 55 181 L 53 188 L 54 189 L 58 183 Q 59 180 55 181 Z M 65 183 L 66 184 L 69 190 L 62 191 Q 56 196 56 207 Q 61 208 62 204 Q 61 201 64 202 L 70 191 L 73 189 L 71 186 L 65 183 Z M 78 204 L 76 205 L 68 216 L 66 224 L 67 227 L 80 206 Q 81 203 78 204 Z M 39 221 Q 37 224 40 223 L 39 221 Z M 37 230 Q 34 234 38 233 L 37 230 Z M 50 272 L 53 283 L 52 286 L 56 295 L 61 299 L 52 275 Q 53 271 50 272 Z " /><path fill="rgb(62,40,24)" stroke="rgb(62,40,24)" stroke-width="1" opacity="0.996078431372549" d="M 99.5 155 L 97.5 158 L 99.5 155 Z " /><path fill="rgb(62,40,24)" stroke="rgb(62,40,24)" stroke-width="1" opacity="0.996078431372549" d="M 297.5 167 L 298 169.5 L 297 169.5 L 297.5 167 Z " /><path fill="rgb(62,40,24)" stroke="rgb(62,40,24)" stroke-width="1" opacity="0.996078431372549" d="M 298.5 171 L 300 179.5 L 299 179.5 L 298.5 171 Z " /><path fill="rgb(62,40,24)" stroke="rgb(62,40,24)" stroke-width="1" opacity="0.996078431372549" d="M 307 177 L 313.5 179 L 316.5 178 L 323.5 181 L 325.5 180 L 328 181 L 328.5 179 Q 330 182.5 331.5 180 L 340.5 182 L 343 184.5 L 350 202.5 L 350 206 L 348 206.5 L 352 208.5 L 350 212.5 L 354 231.5 L 357 235.5 L 357 243.5 L 358 244.5 L 357 248.5 L 358 249.5 L 359 262.5 Q 356.8 263.8 358 268.5 Q 353.8 272.8 353 280.5 L 341 304.5 L 333.5 315 Q 329.8 316.3 331 312.5 L 334 298 L 332 297.5 L 333 294.5 L 332 287.5 L 334 281.5 L 334 272.5 L 335 271.5 L 334 268.5 L 336 262.5 L 332 243 Q 335 244 334 241 L 329.5 242 L 330.5 240 L 339 239 L 344 255.5 L 345 273.5 L 346.5 280 L 348 276.5 L 348 250.5 L 342 229.5 L 336 216.5 L 332.5 213 Q 330.3 213.8 331 211.5 L 329 208.5 L 332 201.5 L 331 199.5 L 332 197.5 L 331 195 L 328.5 195 L 316.5 188 L 316.5 190 L 312.5 189 L 310.5 189 L 302.5 190 L 301 188.5 L 300 181.5 L 301.5 182 Q 303.8 182.8 303 180.5 L 307 179 L 307 177 Z M 346 280 L 345 284 L 346 284 L 346 280 Z " /><path fill="rgb(62,40,24)" stroke="rgb(62,40,24)" stroke-width="1" opacity="0.996078431372549" d="M 97.5 206 L 97 207.5 L 94.5 212 L 95 210.5 L 97.5 206 Z " /><path fill="rgb(62,40,24)" stroke="rgb(62,40,24)" stroke-width="1" opacity="0.996078431372549" d="M 319.5 207 Q 323.9 205.5 323 208.5 L 327 212.5 L 329 219.5 L 337 234.5 L 329.5 235 L 327 234 L 325 228.5 L 327 229.5 L 328.5 233 Q 330.8 233.8 330 231.5 L 328 224 Q 325 222.8 326 226.5 L 325 226.5 L 326 222.5 L 324 219 Q 321.3 217.9 322 220.5 L 320.5 223 L 320 217 L 312 215 Q 313.1 217.7 310.5 217 L 309 217.5 L 309 212.5 L 313.5 208 L 316.5 209 L 319.5 207 Z " /><path fill="rgb(62,40,24)" stroke="rgb(62,40,24)" stroke-width="1" opacity="0.996078431372549" d="M 310.5 234 L 316 234.5 L 310.5 235 L 310.5 234 Z " /><path fill="rgb(62,40,24)" stroke="rgb(62,40,24)" stroke-width="1" opacity="0.996078431372549" d="M 106.5 235 L 107.5 237 L 106.5 235 Z " /><path fill="rgb(62,40,24)" stroke="rgb(62,40,24)" stroke-width="1" opacity="0.996078431372549" d="M 108.5 238 L 109 239.5 L 107 240.5 L 108.5 238 Z " /><path fill="rgb(62,40,24)" stroke="rgb(62,40,24)" stroke-width="1" opacity="0.996078431372549" d="M 327.5 241 L 326.5 243 L 327.5 241 Z " /><path fill="rgb(62,40,24)" stroke="rgb(62,40,24)" stroke-width="1" opacity="0.996078431372549" d="M 109.5 242 L 110 244.5 L 109 244.5 L 109.5 242 Z " /><path fill="rgb(62,40,24)" stroke="rgb(62,40,24)" stroke-width="1" opacity="0.996078431372549" d="M 319.5 245 L 320 247.5 L 319 247.5 L 319.5 245 Z " /><path fill="rgb(62,40,24)" stroke="rgb(62,40,24)" stroke-width="1" opacity="0.996078431372549" d="M 110.5 247 L 112 251.5 L 111 251.5 L 110.5 247 Z " /><path fill="rgb(62,40,24)" stroke="rgb(62,40,24)" stroke-width="1" opacity="0.996078431372549" d="M 295.5 250 L 294.5 252 L 292.5 253 L 293.5 251 L 295.5 250 Z " /><path fill="rgb(62,40,24)" stroke="rgb(62,40,24)" stroke-width="1" opacity="0.996078431372549" d="M 112.5 254 L 113 256.5 L 112 256.5 L 112.5 254 Z " /><path fill="rgb(62,40,24)" stroke="rgb(62,40,24)" stroke-width="1" opacity="0.996078431372549" d="M 320.5 254 L 321 256.5 L 320 256.5 L 320.5 254 Z " /><path fill="rgb(62,40,24)" stroke="rgb(62,40,24)" stroke-width="1" opacity="0.996078431372549" d="M 159 267 Q 168.6 265.2 173 269.5 L 171.5 270 Q 167.3 267 160 268 L 159.5 272 L 159 267 Z " /><path fill="rgb(62,40,24)" stroke="rgb(62,40,24)" stroke-width="1" opacity="0.996078431372549" d="M 285.5 270 L 285 271.5 L 283.5 274 L 284 272.5 L 285.5 270 Z " /><path fill="rgb(62,40,24)" stroke="rgb(62,40,24)" stroke-width="1" opacity="0.996078431372549" d="M 229 272 L 235 272.5 L 229 274 L 229 272 Z " /><path fill="rgb(62,40,24)" stroke="rgb(62,40,24)" stroke-width="1" opacity="0.996078431372549" d="M 237.5 273 Q 240.3 274.3 238 275.5 L 237.5 277 L 237 275.5 L 237.5 273 Z " /><path fill="rgb(62,40,24)" stroke="rgb(62,40,24)" stroke-width="1" opacity="0.996078431372549" d="M 309.5 282 L 310.5 284 L 312 283.5 Q 311.3 286.1 314 285 L 314 288.5 L 318 302.5 L 318 314.5 L 323 325.5 L 323 328.5 L 318 338.5 L 318 341.5 L 316 343.5 L 316 349.5 Q 313 350.5 314 355.5 L 315 358.5 L 314 360.5 L 314 362.5 L 316 380.5 Q 318.9 389.6 325.5 395 Q 330.8 393.8 332 396.5 L 330.5 399 Q 324.3 403.8 311.5 402 Q 302.3 399.7 296.5 394 L 285.5 391 L 280 385.5 L 273 370.5 L 272 352.5 L 274 341.5 L 277 335.5 L 278 329 Q 281 330 280 327 L 284 327 L 284 325 L 286.5 325 L 290 323 L 293 317.5 L 291 316.5 L 296 310.5 L 305 292.5 L 307 285 Q 310.1 286.1 309.5 282 Z M 304 310 L 296 323 L 292 335 L 289 349 L 289 360 L 288 361 L 288 365 L 291 374 Q 290 377 293 376 L 292 378 L 296 381 L 301 383 L 302 383 L 302 379 L 304 379 L 305 375 Q 306 370 303 369 L 303 366 L 299 364 L 298 358 Q 297 354 300 355 L 299 351 L 300 349 L 299 344 L 302 335 L 302 324 L 304 320 L 304 310 Z " /><path fill="rgb(62,40,24)" stroke="rgb(62,40,24)" stroke-width="1" opacity="0.996078431372549" d="M 86 285 L 91 285 L 91 286.5 L 95 290.5 L 99 297.5 L 99 300.5 L 102.5 305 Q 105.1 304.2 104 307.5 L 117 316.5 L 120 324.5 L 121 336.5 L 120 337.5 L 120 348.5 L 116 363.5 L 106.5 375 L 93.5 379 L 77.5 391 L 68.5 392 L 69 390.5 Q 68.3 388.3 70.5 389 L 71.5 387 Q 67.5 387.5 67 384.5 L 68 379.5 L 74 372 Q 76.7 373.1 76 370.5 L 77 368 Q 80 366.8 79 370.5 Q 77.6 377.1 73 380.5 L 72 385.5 L 76 382.5 L 78 379.5 Q 88.6 362.1 86 331.5 L 82 313.5 L 78 303.5 L 78 296.5 Q 79.5 290 84.5 287 Q 87.1 287.7 86 285 Z M 92 310 L 89 315 L 85 317 L 87 328 L 87 330 L 89 335 Q 88 338 91 337 L 91 355 L 92 356 L 90 367 L 92 372 L 94 369 L 94 367 L 96 367 L 96 361 L 98 361 L 101 345 L 101 330 L 96 313 L 92 310 Z " /><path fill="rgb(62,40,24)" stroke="rgb(62,40,24)" stroke-width="1" opacity="0.996078431372549" d="M 232.5 286 L 232 287.5 L 231.5 289 L 231 287.5 L 232.5 286 Z " /><path fill="rgb(62,40,24)" stroke="rgb(62,40,24)" stroke-width="1" opacity="0.996078431372549" d="M 172.5 287 L 179.5 287 L 196.5 292 L 200.5 292 L 201.5 291 L 217.5 291 L 221 293.5 L 218 301 L 215.5 302 L 215 300.5 L 218 295 L 214.5 294 L 195.5 294 L 185.5 291 L 176.5 291 L 175 293.5 L 178 298.5 L 176.5 299 L 171 294.5 L 172 291.5 L 171 288.5 L 172.5 287 Z " /><path fill="rgb(62,40,24)" stroke="rgb(62,40,24)" stroke-width="1" opacity="0.996078431372549" d="M 167.5 290 L 168.5 292 L 167.5 290 Z " /><path fill="rgb(62,40,24)" stroke="rgb(62,40,24)" stroke-width="1" opacity="0.996078431372549" d="M 270.5 292 L 269.5 294 L 270.5 292 Z " /><path fill="rgb(62,40,24)" stroke="rgb(62,40,24)" stroke-width="1" opacity="0.996078431372549" d="M 227.5 293 L 226.5 295 L 227.5 293 Z " /><path fill="rgb(62,40,24)" stroke="rgb(62,40,24)" stroke-width="1" opacity="0.996078431372549" d="M 139.5 300 L 142.5 304 L 139.5 300 Z " /><path fill="rgb(62,40,24)" stroke="rgb(62,40,24)" stroke-width="1" opacity="0.996078431372549" d="M 256.5 305 L 255.5 307 L 256.5 305 Z " /><path fill="rgb(62,40,24)" stroke="rgb(62,40,24)" stroke-width="1" opacity="0.996078431372549" d="M 242.5 315 L 241.5 317 L 242.5 315 Z " /><path fill="rgb(62,40,24)" stroke="rgb(62,40,24)" stroke-width="1" opacity="0.996078431372549" d="M 157.5 317 L 158.5 319 L 157.5 317 Z " /><path fill="rgb(62,40,24)" stroke="rgb(62,40,24)" stroke-width="1" opacity="0.996078431372549" d="M 285.5 320 L 288 320.5 L 286 321 Q 287.3 324 283.5 323 L 285.5 320 Z " /><path fill="rgb(62,40,24)" stroke="rgb(62,40,24)" stroke-width="1" opacity="0.996078431372549" d="M 173.5 328 L 174.5 330 L 173.5 328 Z " /><path fill="rgb(62,40,24)" stroke="rgb(62,40,24)" stroke-width="1" opacity="0.996078431372549" d="M 336.5 328 L 345 340.5 L 342.5 341 L 335 334.5 L 334 329 L 336.5 328 Z " /><path fill="rgb(62,40,24)" stroke="rgb(62,40,24)" stroke-width="1" opacity="0.996078431372549" d="M 179.5 331 L 180.5 333 L 179.5 331 Z " /><path fill="rgb(62,40,24)" stroke="rgb(62,40,24)" stroke-width="1" opacity="0.996078431372549" d="M 327.5 341 L 329 356.5 L 334 369 L 339.5 372 L 353.5 373 L 357 375.5 L 356.5 377 Q 355.5 374 350.5 375 Q 349 377.5 343.5 376 L 336 374 L 338 385 Q 341 384 340 387 Q 337.3 388.1 338 385.5 L 337 385.5 Q 335.7 389.7 340.5 388 Q 350.4 385.4 355.5 378 L 353 381.5 L 351.5 384 L 337.5 391 L 326.5 392 L 328 389.5 L 319 378.5 L 318 360.5 L 319 355.5 L 327.5 341 Z " /><path fill="rgb(50,23,4)" stroke="rgb(50,23,4)" stroke-width="1" opacity="0.996078431372549" d="M 140.5 102 L 141 106.5 L 140 106.5 L 140.5 102 Z " /><path fill="rgb(50,23,4)" stroke="rgb(50,23,4)" stroke-width="1" opacity="0.996078431372549" d="M 135.5 104 L 136 109.5 L 135 109.5 L 135.5 104 Z " /><path fill="rgb(50,23,4)" stroke="rgb(50,23,4)" stroke-width="1" opacity="0.996078431372549" d="M 148.5 111 L 147.5 113 L 148.5 111 Z " /><path fill="rgb(50,23,4)" stroke="rgb(50,23,4)" stroke-width="1" opacity="0.996078431372549" d="M 134.5 112 L 132.5 115 L 134.5 112 Z " /><path fill="rgb(50,23,4)" stroke="rgb(50,23,4)" stroke-width="1" opacity="0.996078431372549" d="M 126.5 115 L 129 115.5 L 126.5 116 L 126.5 115 Z " /><path fill="rgb(50,23,4)" stroke="rgb(50,23,4)" stroke-width="1" opacity="0.996078431372549" d="M 130.5 120 L 135 123.5 L 131.5 121 L 130.5 120 Z " /><path fill="rgb(50,23,4)" stroke="rgb(50,23,4)" stroke-width="1" opacity="0.996078431372549" d="M 276.5 125 L 279 128.5 L 277 127.5 L 276.5 125 Z " /><path fill="rgb(50,23,4)" stroke="rgb(50,23,4)" stroke-width="1" opacity="0.996078431372549" d="M 280.5 128 L 286 131.5 L 284.5 132 L 282.5 131 L 281 131.5 L 280.5 128 Z " /><path fill="rgb(50,23,4)" stroke="rgb(50,23,4)" stroke-width="1" opacity="0.996078431372549" d="M 286.5 134 Q 291.1 132.7 289 138.5 L 297 160.5 L 297 164.5 L 296 164.5 L 294 155.5 L 287 140.5 L 288 135 L 286.5 134 Z " /><path fill="rgb(50,23,4)" stroke="rgb(50,23,4)" stroke-width="1" opacity="0.996078431372549" d="M 299.5 174 Q 303.6 176.7 303 182 L 300 180.5 L 299.5 174 Z " /><path fill="rgb(50,23,4)" stroke="rgb(50,23,4)" stroke-width="1" opacity="0.996078431372549" d="M 98.5 202 L 99 204.5 L 97 205.5 L 98.5 202 Z " /><path fill="rgb(50,23,4)" stroke="rgb(50,23,4)" stroke-width="1" opacity="0.996078431372549" d="M 312 215 Q 318 213 316 219 L 311 219 L 311 221.5 L 310 221.5 L 310 217 Q 313 218 312 215 Z " /><path fill="rgb(50,23,4)" stroke="rgb(50,23,4)" stroke-width="1" opacity="0.996078431372549" d="M 320.5 223 L 321 226.5 L 320 226.5 L 320.5 223 Z " /><path fill="rgb(50,23,4)" stroke="rgb(50,23,4)" stroke-width="1" opacity="0.996078431372549" d="M 319.5 229 L 320 231.5 L 317 233.5 L 319.5 229 Z " /><path fill="rgb(50,23,4)" stroke="rgb(50,23,4)" stroke-width="1" opacity="0.996078431372549" d="M 328.5 241 L 327.5 243 L 328.5 241 Z " /><path fill="rgb(50,23,4)" stroke="rgb(50,23,4)" stroke-width="1" opacity="0.996078431372549" d="M 319.5 248 L 320 254.5 L 319 254.5 L 319.5 248 Z " /><path fill="rgb(50,23,4)" stroke="rgb(50,23,4)" stroke-width="1" opacity="0.996078431372549" d="M 293.5 252 L 293 253.5 L 289 266.5 L 285.5 272 L 286 270.5 L 291 254.5 L 293.5 252 Z " /><path fill="rgb(50,23,4)" stroke="rgb(50,23,4)" stroke-width="1" opacity="0.996078431372549" d="M 36.5 255 Q 38.8 254.3 38 256.5 L 46 288.5 L 66 323.5 L 68 331.5 L 68 346.5 L 67 346.5 L 66 328.5 L 61.5 322 L 60.5 336 L 60 319.5 L 61 317.5 L 54.5 307 L 53 306.5 Q 55.5 305 52 303.5 L 51 299.5 L 46 294.5 L 41 284.5 L 40 279.5 L 38 277.5 L 35 260.5 L 36 258.5 L 35 256.5 L 36.5 255 Z " /><path fill="rgb(50,23,4)" stroke="rgb(50,23,4)" stroke-width="1" opacity="0.996078431372549" d="M 112.5 257 L 116 265.5 L 115 265.5 L 112.5 257 Z " /><path fill="rgb(50,23,4)" stroke="rgb(50,23,4)" stroke-width="1" opacity="0.996078431372549" d="M 70.5 258 L 71 259.5 L 70 262.5 L 71 263.5 L 71 284.5 L 74.5 299 L 76 297.5 L 76 280.5 L 77 279.5 Q 74.5 278 78 276.5 L 84.5 265 L 89.5 264 L 101 267 L 101 269 Q 103.7 267.9 103 270.5 L 105 271.5 Q 104 267.8 107 269 L 110 276.5 L 110 278.5 L 116 291 L 118 291.5 L 118 293.5 L 126 314.5 L 129 331.5 L 124 356.5 L 112 377 L 110 377 L 110 379 Q 107.3 377.9 108 380.5 Q 102.6 387.1 93.5 390 L 71.5 393 L 72.5 391 L 79.5 390 L 93.5 379 L 106.5 375 L 113 368.5 L 118 357.5 Q 117.4 351.4 120 348.5 L 121 333.5 L 118 318.5 L 113.5 313 L 104 307.5 Q 105.1 304.2 102.5 305 L 91 285 L 86 285 Q 87.1 287.7 84.5 287 Q 79.5 290 78 296.5 L 78 303.5 L 82 314.5 L 81 318.5 L 82 318.5 L 82.5 317 L 83 318.5 Q 80.5 320 82 325.5 L 83 326.5 L 83 336.5 L 80 348.5 L 76 353.5 L 75 366.5 L 76 366.5 L 84.5 342 L 86 343.5 L 86 354.5 L 83 369.5 L 78 381 Q 75.3 379.9 76 382.5 L 72 385.5 L 73 380.5 L 78 373.5 L 79 368 Q 76.3 366.9 77 369.5 L 76 372 Q 73.3 370.9 74 373.5 L 68 378.5 Q 68.8 375.9 65.5 377 L 64.5 378 L 55.5 378 L 47 373.5 L 48.5 374 Q 53.1 376.9 61.5 376 L 69 374 L 73 363.5 L 73 360 L 65.5 362 L 65.5 361 L 69 358.5 L 73 352.5 L 77 339.5 L 77 324.5 L 73 311.5 L 72 300.5 L 69 294.5 L 68 285.5 L 69 281.5 L 68 280.5 Q 69.5 273 67 269.5 L 70.5 258 Z M 106 272 L 108 275 L 108 274 L 106 272 Z M 76 299 L 76 305 L 77 305 L 76 299 Z M 79 307 L 78 310 L 79 310 L 79 307 Z " /><path fill="rgb(50,23,4)" stroke="rgb(50,23,4)" stroke-width="1" opacity="0.996078431372549" d="M 108.5 263 L 110 268.5 L 108 269.5 L 109 266.5 L 108.5 263 Z " /><path fill="rgb(50,23,4)" stroke="rgb(50,23,4)" stroke-width="1" opacity="0.996078431372549" d="M 290.5 266 L 291 268.5 L 290 268.5 L 290.5 266 Z " /><path fill="rgb(50,23,4)" stroke="rgb(50,23,4)" stroke-width="1" opacity="0.996078431372549" d="M 358.5 266 L 359 268.5 L 358 268.5 L 358.5 266 Z " /><path fill="rgb(50,23,4)" stroke="rgb(50,23,4)" stroke-width="1" opacity="0.996078431372549" d="M 163.5 268 L 167 268.5 L 163.5 269 L 163.5 268 Z " /><path fill="rgb(50,23,4)" stroke="rgb(50,23,4)" stroke-width="1" opacity="0.996078431372549" d="M 331 269 L 335 271.5 L 333 272.5 L 334 273.5 L 334 281.5 L 332 290.5 L 333 294.5 L 332.5 298 Q 334.8 297.3 334 299.5 L 331 315 Q 334.8 315.8 336 312.5 L 352 283.5 L 353 278 L 356 276.5 L 357 271 L 359 271.5 Q 355.3 287.8 346 298.5 L 346.5 300 L 345 299.5 L 336 315.5 L 336 322.5 L 339 329.5 L 336.5 328 L 335.5 329 Q 332.5 328.1 334 332.5 L 339 338.5 L 335.5 336 Q 333.3 336.8 334 334.5 L 326 324.5 L 324.5 320 L 324 322.5 Q 326.2 323.8 325 328.5 Q 322.2 330.5 323 335 Q 326.8 333.5 326 336.5 Q 329.5 338.5 329 344.5 L 328 344.5 L 327.5 341 L 319 355.5 L 318 366.5 L 319 367.5 L 319 378.5 L 328 389.5 L 326.5 392 L 337.5 391 L 344.5 388 L 343.5 390 L 333 395.5 L 334 398 L 331.5 399 L 332 397.5 L 330.5 395 Q 323.3 396.3 322 391.5 L 316 380.5 L 314 362.5 L 314 360.5 L 315 356.5 L 314 351.5 L 316 349.5 L 316 343.5 L 322 331.5 L 323 325.5 L 318 314.5 L 318 302.5 L 314 283 Q 317.8 284.5 317 281.5 L 318 281.5 L 318 283 L 321 283.5 L 321 294.5 L 322 295.5 L 322 313.5 L 323.5 319 L 324 299.5 L 330 280.5 L 331 269 Z " /><path fill="rgb(50,23,4)" stroke="rgb(50,23,4)" stroke-width="1" opacity="0.996078431372549" d="M 50 272 Q 53 270.8 52 274.5 L 61 298.5 L 56 294.5 L 52 285.5 L 53 282.5 L 50 272 Z " /><path fill="rgb(50,23,4)" stroke="rgb(50,23,4)" stroke-width="1" opacity="0.996078431372549" d="M 110.5 272 L 111.5 274 L 110.5 272 Z " /><path fill="rgb(50,23,4)" stroke="rgb(50,23,4)" stroke-width="1" opacity="0.996078431372549" d="M 116.5 272 L 119 272.5 Q 116.9 275.8 116.5 272 Z " /><path fill="rgb(50,23,4)" stroke="rgb(50,23,4)" stroke-width="1" opacity="0.996078431372549" d="M 233.5 273 Q 237.3 272.3 238 274.5 L 236.5 274 Q 232.5 274.8 233.5 273 Z " /><path fill="rgb(50,23,4)" stroke="rgb(50,23,4)" stroke-width="1" opacity="0.996078431372549" d="M 284.5 273 L 282.5 276 L 284.5 273 Z " /><path fill="rgb(50,23,4)" stroke="rgb(50,23,4)" stroke-width="1" opacity="0.996078431372549" d="M 310 273 Q 313 271.8 312 275.5 L 310 279.5 L 308.5 285 L 305.5 284 Q 303.3 283.3 304 285.5 L 301 287.5 L 303.5 288 L 306.5 286 L 306 287.5 L 301 296.5 L 301 300.5 L 296 310.5 L 291 316.5 L 293 317.5 L 290 323 L 284 325 L 284 327 L 280 327 L 280 329 Q 277.3 327.9 278 330.5 L 273 345.5 L 272 362.5 Q 274.7 364.3 273 370.5 L 277 380.5 L 285.5 391 L 296.5 394 Q 302.3 399.7 311.5 402 L 323.5 402 L 329.5 399 L 327.5 402 L 316.5 406 L 303.5 406 L 292.5 401 L 291 401.5 L 287.5 397 L 280 390.5 L 275 382.5 L 269 363.5 L 269 361.5 L 269 343.5 L 270 342.5 L 270 340.5 L 270 335.5 L 273 328.5 L 272.5 327 Q 275.1 327.8 274 324.5 L 284 303 L 286 303 L 286 299 L 288 299 L 288 297 L 290 297 L 292 293 L 296 293 L 296 290.5 L 293 285.5 L 293 283 L 298 283 Q 296.9 280.3 299.5 281 L 302 279.5 L 302 281 L 304 281 Q 302.9 283.7 305.5 283 L 307 283.5 Q 310.8 279.9 310 273 Z M 301 281 L 297 286 L 299 285 Q 301 286 300 283 L 302 283 Q 303 280 301 281 Z M 286 320 L 284 323 Q 287 324 286 321 L 288 321 L 286 320 Z " /><path fill="rgb(50,23,4)" stroke="rgb(50,23,4)" stroke-width="1" opacity="0.996078431372549" d="M 296.5 274 L 297 278 L 299 278.5 L 296 280 L 295.5 282 L 293 277.5 L 296.5 274 Z " /><path fill="rgb(50,23,4)" stroke="rgb(50,23,4)" stroke-width="1" opacity="0.996078431372549" d="M 278.5 282 L 277.5 284 L 278.5 282 Z " /><path fill="rgb(50,23,4)" stroke="rgb(50,23,4)" stroke-width="1" opacity="0.996078431372549" d="M 125.5 284 L 129 288.5 L 128 288.5 L 125.5 284 Z " /><path fill="rgb(50,23,4)" stroke="rgb(50,23,4)" stroke-width="1" opacity="0.996078431372549" d="M 172.5 285 L 179 286.5 L 172.5 287 L 171 288.5 L 170.5 290 L 170 286 L 172.5 285 Z " /><path fill="rgb(50,23,4)" stroke="rgb(50,23,4)" stroke-width="1" opacity="0.996078431372549" d="M 180.5 287 L 187 288.5 L 184.5 289 L 180.5 288 L 180.5 287 Z " /><path fill="rgb(50,23,4)" stroke="rgb(50,23,4)" stroke-width="1" opacity="0.996078431372549" d="M 188.5 289 L 191 289.5 L 188.5 290 L 188.5 289 Z " /><path fill="rgb(50,23,4)" stroke="rgb(50,23,4)" stroke-width="1" opacity="0.996078431372549" d="M 192.5 290 L 195 290.5 L 192.5 291 L 192.5 290 Z " /><path fill="rgb(50,23,4)" stroke="rgb(50,23,4)" stroke-width="1" opacity="0.996078431372549" d="M 207.5 290 L 218.5 290 L 222 292.5 L 221.5 294 L 217.5 291 L 207.5 291 L 207.5 290 Z " /><path fill="rgb(50,23,4)" stroke="rgb(50,23,4)" stroke-width="1" opacity="0.996078431372549" d="M 171.5 291 L 172 292.5 Q 170.5 295.5 169 292.5 L 171 292.5 L 171.5 291 Z " /><path fill="rgb(50,23,4)" stroke="rgb(50,23,4)" stroke-width="1" opacity="0.996078431372549" d="M 196.5 291 L 201 291.5 L 196.5 292 L 196.5 291 Z " /><path fill="rgb(50,23,4)" stroke="rgb(50,23,4)" stroke-width="1" opacity="0.996078431372549" d="M 268.5 294 L 263.5 300 L 268.5 294 Z " /><path fill="rgb(50,23,4)" stroke="rgb(50,23,4)" stroke-width="1" opacity="0.996078431372549" d="M 224.5 295 L 223.5 297 L 224.5 295 Z " /><path fill="rgb(50,23,4)" stroke="rgb(50,23,4)" stroke-width="1" opacity="0.996078431372549" d="M 137.5 298 L 138.5 300 L 137.5 298 Z " /><path fill="rgb(50,23,4)" stroke="rgb(50,23,4)" stroke-width="1" opacity="0.996078431372549" d="M 143.5 304 L 146.5 308 L 143.5 304 Z " /><path fill="rgb(50,23,4)" stroke="rgb(50,23,4)" stroke-width="1" opacity="0.996078431372549" d="M 245.5 313 L 244.5 315 L 245.5 313 Z " /><path fill="rgb(50,23,4)" stroke="rgb(50,23,4)" stroke-width="1" opacity="0.996078431372549" d="M 155.5 316 L 156.5 318 L 155.5 316 Z " /><path fill="rgb(50,23,4)" stroke="rgb(50,23,4)" stroke-width="1" opacity="0.996078431372549" d="M 159.5 319 L 160.5 321 L 159.5 319 Z " /><path fill="rgb(50,23,4)" stroke="rgb(50,23,4)" stroke-width="1" opacity="0.996078431372549" d="M 219.5 329 L 218.5 331 L 217 330.5 L 219.5 329 Z " /><path fill="rgb(50,23,4)" stroke="rgb(50,23,4)" stroke-width="1" opacity="0.996078431372549" d="M 85.5 331 L 86 333.5 L 85 333.5 L 85.5 331 Z " /><path fill="rgb(50,23,4)" stroke="rgb(50,23,4)" stroke-width="1" opacity="0.996078431372549" d="M 214.5 331 L 216 331.5 L 213.5 333 L 214.5 331 Z " /><path fill="rgb(50,23,4)" stroke="rgb(50,23,4)" stroke-width="1" opacity="0.996078431372549" d="M 340.5 333 L 341.5 335 L 340.5 333 Z " /><path fill="rgb(50,23,4)" stroke="rgb(50,23,4)" stroke-width="1" opacity="0.996078431372549" d="M 59.5 337 L 60 340.5 L 59 340.5 L 59.5 337 Z " /><path fill="rgb(50,23,4)" stroke="rgb(50,23,4)" stroke-width="1" opacity="0.996078431372549" d="M 328.5 348 L 329 350.5 L 328 350.5 L 328.5 348 Z " /><path fill="rgb(50,23,4)" stroke="rgb(50,23,4)" stroke-width="1" opacity="0.996078431372549" d="M 39.5 366 L 44 371.5 L 40 368.5 L 39.5 366 Z " /><path fill="rgb(50,23,4)" stroke="rgb(50,23,4)" stroke-width="1" opacity="0.996078431372549" d="M 142.5 371 L 146 373.5 L 149 379.5 L 149 382.5 L 154.5 391 L 157.5 393 L 159.5 392 L 163 393 Q 164.1 395.7 161.5 395 L 156 399.5 L 155 403 Q 151.7 405.1 143.5 404 Q 137 402.5 134 397.5 L 133 391.5 L 134 390.5 L 134 380.5 L 139.5 372 L 142.5 371 Z " /><path fill="rgb(50,23,4)" stroke="rgb(50,23,4)" stroke-width="1" opacity="0.996078431372549" d="M 343.5 372 L 348 372.5 L 343.5 373 L 343.5 372 Z " /><path fill="rgb(50,23,4)" stroke="rgb(50,23,4)" stroke-width="1" opacity="0.996078431372549" d="M 355.5 379 L 353.5 382 L 355.5 379 Z " /><path fill="rgb(50,23,4)" stroke="rgb(50,23,4)" stroke-width="1" opacity="0.996078431372549" d="M 262.5 384 Q 264.8 383.3 264 385.5 Q 266.9 390.1 266 398.5 L 272 416 L 265.5 414 L 255 405.5 L 259 404 L 260.5 401 L 262 400.5 L 262 390.5 L 261 385.5 L 262.5 384 Z " /><path fill="rgb(50,23,4)" stroke="rgb(50,23,4)" stroke-width="1" opacity="0.996078431372549" d="M 350.5 384 L 349.5 386 L 350.5 384 Z " /><path fill="rgb(50,23,4)" stroke="rgb(50,23,4)" stroke-width="1" opacity="0.996078431372549" d="M 347.5 386 L 346.5 388 L 347.5 386 Z " /><path fill="rgb(50,23,4)" stroke="rgb(50,23,4)" stroke-width="1" opacity="0.996078431372549" d="M 71.5 387 L 70.5 389 L 71.5 387 Z " /><path fill="rgb(50,23,4)" stroke="rgb(50,23,4)" stroke-width="1" opacity="0.996078431372549" d="M 176.5 392 L 181 394 L 185 401 L 193.5 405 L 200.5 403 L 207.5 403 L 209.5 406 L 198.5 411 L 184.5 411 L 176 405.5 Q 172.5 401.3 174 393 L 176.5 392 Z " /><path fill="rgb(50,23,4)" stroke="rgb(50,23,4)" stroke-width="1" opacity="0.996078431372549" d="M 238.5 399 L 244 401 Q 242.7 404.7 248.5 403 L 251 406.5 L 252 415 Q 248.6 414.3 247.5 417 L 244.5 416 L 242.5 416 Q 233.6 417.4 228.5 415 Q 218.5 411.5 213 403.5 L 216.5 406 L 225.5 408 L 235 404 L 238.5 399 Z " /><path fill="rgb(30,7,1)" stroke="rgb(30,7,1)" stroke-width="1" opacity="0.9921568627450981" d="M 120.5 145 L 121 146.5 L 119.5 149 L 119 147.5 L 120.5 145 Z " /><path fill="rgb(30,7,1)" stroke="rgb(30,7,1)" stroke-width="1" opacity="0.9921568627450981" d="M 91.5 216 L 95 232 L 91 233.5 L 89 240.5 L 92.5 248 L 101.5 249 L 105.5 246 L 108 246.5 L 107 252.5 L 110 260 Q 112.7 261.1 112 258.5 L 111 254.5 L 112 254.5 L 116 268.5 L 128 289 L 130 289 Q 128.9 291.7 131.5 291 L 146.5 308 L 153 313.5 L 156.5 318 L 177.5 332 L 189.5 336 L 201.5 336 L 218.5 331 L 237.5 320 L 270 295 L 278.5 283 L 279 284.5 L 273 294 L 271 294.5 L 274 295 L 274.5 293 L 282.5 293 L 289.5 284 L 293 285.5 L 280 309.5 L 274 327 L 272 327.5 L 272 329.5 L 269 341.5 L 269 343.5 L 269 361.5 L 270 362.5 L 270 364.5 Q 272.7 386.3 286.5 397 L 291 400.5 L 291.5 402 L 293.5 402 Q 301.1 407.4 315 406.5 L 306 407 L 299.5 415 L 292.5 419 L 277.5 421 Q 264.5 418.5 256.5 411 L 254 415 L 245.5 419 L 234.5 419 L 222.5 415 L 216 409.5 L 212.5 404 L 203.5 411 L 190.5 414 Q 189.3 411.7 184.5 413 L 176 407.5 L 173 401.5 L 172.5 388 Q 168.2 397.2 160.5 403 Q 155.5 407 146.5 407 Q 137.4 405.1 133 398.5 L 129.5 381 Q 121.6 387.6 109.5 390 L 94.5 391 L 89.5 393 L 76.5 394 L 75.5 392 L 93.5 390 Q 102.6 387.1 108 380.5 L 112 375.5 L 116 371.5 L 124 356.5 L 128 340.5 Q 126.7 333.7 129 330.5 L 126 314.5 L 117 292.5 L 117.5 291 Q 115.3 291.8 116 289.5 L 109 277.5 L 110 274.5 L 108 273.5 L 107.5 275 L 103 269 Q 100 270 101 267 L 98.5 267 L 90.5 264 L 86.5 264 L 83 266.5 Q 81.4 274.4 76 278.5 L 76 280.5 L 76 297.5 L 75 298.5 L 79 309.5 L 78 309.5 L 75 302.5 L 71 284.5 L 71 260.5 L 74 248.5 L 91.5 216 Z M 109 263 L 109 267 L 108 270 L 110 269 L 109 263 Z M 105 269 Q 103 273 107 272 L 108 273 L 107 271 Q 108 268 105 269 Z M 143 371 L 140 372 L 134 381 L 134 391 L 133 392 L 134 398 Q 137 402 144 404 Q 152 405 155 403 L 156 400 L 162 395 Q 164 396 163 393 L 160 392 L 158 393 L 155 391 L 149 383 L 149 380 L 146 374 L 143 371 Z M 263 384 L 261 386 L 262 391 L 262 401 L 261 401 L 259 404 L 255 406 L 266 414 L 272 416 L 266 399 Q 267 390 264 386 Q 265 383 263 384 Z M 177 392 L 174 393 Q 173 401 176 406 L 185 411 L 199 411 L 210 406 L 208 403 L 201 403 L 194 405 L 185 401 L 181 394 L 177 392 Z M 239 399 L 235 404 L 226 408 L 219 406 L 216 407 Q 221 413 229 415 Q 234 417 243 416 L 245 416 L 248 417 Q 249 414 252 415 L 251 407 L 249 403 Q 243 405 244 401 L 239 399 Z " /><path fill="rgb(30,7,1)" stroke="rgb(30,7,1)" stroke-width="1" opacity="0.9921568627450981" d="M 319.5 225 L 320 228.5 L 316.5 234 L 315 233.5 L 318 230.5 L 318 228.5 L 319.5 225 Z " /><path fill="rgb(30,7,1)" stroke="rgb(30,7,1)" stroke-width="1" opacity="0.9921568627450981" d="M 311.5 239 L 314 239.5 L 311.5 240 L 311.5 239 Z " /><path fill="rgb(30,7,1)" stroke="rgb(30,7,1)" stroke-width="1" opacity="0.9921568627450981" d="M 326.5 243 Q 326.3 248.3 329 250.5 L 329 258.5 L 330 259.5 L 330 276.5 L 329 277.5 L 328 288.5 L 324 299.5 L 323.5 319 L 322 313.5 L 322 288.5 L 323 287.5 Q 322.2 278.3 324 273 L 326 273 Q 324.8 267.7 328 268.5 L 328 258.5 L 325 246.5 L 326.5 243 Z " /><path fill="rgb(30,7,1)" stroke="rgb(30,7,1)" stroke-width="1" opacity="0.9921568627450981" d="M 324.5 251 L 325 255.5 L 324 255.5 L 324.5 251 Z " /><path fill="rgb(30,7,1)" stroke="rgb(30,7,1)" stroke-width="1" opacity="0.9921568627450981" d="M 360.5 265 L 361 267.5 L 360 267.5 L 360.5 265 Z " /><path fill="rgb(30,7,1)" stroke="rgb(30,7,1)" stroke-width="1" opacity="0.9921568627450981" d="M 161.5 268 L 170.5 269 L 173.5 271 L 188.5 274 L 196.5 274 L 197.5 275 L 224.5 275 L 225.5 274 L 237 274 Q 237 280.8 233.5 285 Q 232.3 282.8 231 285.5 Q 230.1 292.1 225.5 295 L 219.5 299 L 220 297.5 L 222 292 L 224 291.5 L 221.5 290 L 202.5 290 L 200.5 291 L 197.5 290 L 193.5 290 Q 184.1 285.4 171.5 284 L 169 285 L 172 293.5 L 166 288.5 L 160 274.5 L 160 269.5 L 161.5 268 Z " /><path fill="rgb(30,7,1)" stroke="rgb(30,7,1)" stroke-width="1" opacity="0.9921568627450981" d="M 297 274 L 299 274.5 L 297 275.5 L 297 274 Z " /><path fill="rgb(30,7,1)" stroke="rgb(30,7,1)" stroke-width="1" opacity="0.9921568627450981" d="M 41.5 287 L 54 305.5 L 53.5 307 L 56 308.5 L 61 318.5 L 59.5 321 L 59 316.5 L 44 293.5 L 41.5 287 Z " /><path fill="rgb(30,7,1)" stroke="rgb(30,7,1)" stroke-width="1" opacity="0.9921568627450981" d="M 352.5 290 L 352 291.5 L 348 299 L 346 299.5 Q 348.5 301 345 302.5 L 338 316.5 L 336.5 323 L 336 315.5 L 345 299.5 L 352.5 290 Z " /><path fill="rgb(30,7,1)" stroke="rgb(30,7,1)" stroke-width="1" opacity="0.9921568627450981" d="M 81.5 315 Q 86.3 326.3 86 342.5 L 84 342.5 L 82 351.5 L 80 353.5 L 78 362.5 L 75.5 367 L 75 360.5 Q 77.5 359 76 353.5 L 80 348.5 Q 79.4 343.9 82 342.5 L 83 326.5 L 82 325.5 L 81.5 315 Z " /><path fill="rgb(30,7,1)" stroke="rgb(30,7,1)" stroke-width="1" opacity="0.9921568627450981" d="M 324.5 320 L 326 324.5 Q 331.7 329 334 336 L 342 340.5 L 340.5 341 L 329 334 L 328.5 341 L 326 335 Q 321.5 336.8 323 331.5 Q 326 329.5 325 323.5 L 324.5 320 Z " /><path fill="rgb(30,7,1)" stroke="rgb(30,7,1)" stroke-width="1" opacity="0.9921568627450981" d="M 328.5 345 L 329 347.5 L 328 347.5 L 328.5 345 Z " /><path fill="rgb(30,7,1)" stroke="rgb(30,7,1)" stroke-width="1" opacity="0.9921568627450981" d="M 332.5 364 L 333.5 366 L 332.5 364 Z " /><path fill="rgb(30,7,1)" stroke="rgb(30,7,1)" stroke-width="1" opacity="0.9921568627450981" d="M 334.5 367 L 337.5 371 L 334.5 367 Z " /><path fill="rgb(30,7,1)" stroke="rgb(30,7,1)" stroke-width="1" opacity="0.9921568627450981" d="M 46.5 373 L 47.5 375 L 46.5 373 Z " /><path fill="rgb(30,7,1)" stroke="rgb(30,7,1)" stroke-width="1" opacity="0.9921568627450981" d="M 68.5 376 L 68 377.5 L 67.5 381 L 60.5 379 L 55.5 379 L 53 377.5 L 54.5 377 L 55.5 378 L 64.5 378 L 68.5 376 Z " /><path fill="rgb(30,7,1)" stroke="rgb(30,7,1)" stroke-width="1" opacity="0.9921568627450981" d="M 353.5 382 L 351.5 385 L 353.5 382 Z " /><path fill="rgb(30,7,1)" stroke="rgb(30,7,1)" stroke-width="1" opacity="0.9921568627450981" d="M 348.5 386 L 347.5 388 L 348.5 386 Z " /><path fill="rgb(30,7,1)" stroke="rgb(30,7,1)" stroke-width="1" opacity="0.9921568627450981" d="M 345.5 388 L 344.5 390 L 345.5 388 Z " /><path fill="rgb(30,7,1)" stroke="rgb(30,7,1)" stroke-width="1" opacity="0.9921568627450981" d="M 342.5 390 L 334.5 399 L 328.5 402 L 330.5 399 L 334 398 L 333 395.5 L 342.5 390 Z " /><path fill="rgb(30,7,1)" stroke="rgb(30,7,1)" stroke-width="1" opacity="0.9921568627450981" d="M 68.5 392 L 71 392.5 L 68.5 393 L 68.5 392 Z " /><path fill="rgb(30,7,1)" stroke="rgb(30,7,1)" stroke-width="1" opacity="0.9921568627450981" d="M 323.5 403 L 325 403.5 L 322.5 405 L 323.5 403 Z " /><path fill="rgb(30,7,1)" stroke="rgb(30,7,1)" stroke-width="1" opacity="0.9921568627450981" d="M 317.5 405 L 320 405.5 L 317.5 406 L 317.5 405 Z " /></svg>